<svg xmlns="http://www.w3.org/2000/svg" viewBox="0 0 446 222"><defs><style>.cls-1{isolation:isolate;}.cls-2{mix-blend-mode:multiply;}.cls-3{fill:#ccc;}</style></defs><title>map</title><g class="cls-1"><g id="Objects"><g class="cls-2"><path class="cls-3" d="M143.78,138.57a11.23,11.23,0,0,0-2.06-.46,7.65,7.65,0,0,1-1.93-1l-1.3-1.13a3.31,3.31,0,0,0-.71-1.26,10.19,10.19,0,0,0-2.6-.21l-2.64-.5-1.85.25s-.67.71-1,.63-.42-.25-.13-.8.88-.25.25-1a5.64,5.64,0,0,0-2.1-1.38,6.77,6.77,0,0,0-1.68-.46,7.78,7.78,0,0,0-1.3.63c-.63.42-.88,1-1.51,1.26a1.55,1.55,0,0,1-1.55-.33,3.74,3.74,0,0,1-.92-.84c-.33-.34-.5,0-1,0s-.63.5-.88.8-.5,0-.59-.46.55-.76,1-1.34a3.11,3.11,0,0,1,1.26-.84c.38-.21.75-1,1-1.34s.21-.55,0-1.09-.34-.5-.76-1.43-.08-1.05-.42-1.93-.34-.8-1.22-1.55-1-1.17-1.89-1.64a5,5,0,0,0-2-.59c-.8-.12-1.17.34-1.76.42s-1-.25-1.89-.67a7.14,7.14,0,0,1-2-1.22c-.8-.67-.75-1.26-1.13-1.89s-.84-.71-1.64-1.26a8.67,8.67,0,0,0-1.59-1c-.92-.46-1.55-.76-2.22-1.13a3.06,3.06,0,0,0-1.8-.29c-.67,0-.8.25-1.26.17s-1.76-.46-2.43-.63-1.13.08-1.72-.42-.42-.75-.88-1-1-.5-1-.5a1.66,1.66,0,0,0-1.33.1,9.25,9.25,0,0,0-.71.76,1.71,1.71,0,0,1-.86.28,5.19,5.19,0,0,0-.09,1.14,1.58,1.58,0,0,0,.48.76,2.61,2.61,0,0,1-.43.71,7.11,7.11,0,0,0-.57.71L90,115v-2.47s.38-.57.62-.95.43-.57.52-.71,0-.53,0-.53l-1.52,0a7.52,7.52,0,0,1-1,1c-.57.47-.71.76-1.09.81a6.37,6.37,0,0,0-1.43.14,6.25,6.25,0,0,0-1.24.91,9.15,9.15,0,0,0-1,2.19.86.86,0,0,1-.81.62c-.24,0-.48.38-.71.48s-.33-.19-.86-.57a3.93,3.93,0,0,0-1.28-.71,14.12,14.12,0,0,0-2-.19,4.22,4.22,0,0,0-1.38.62,1.67,1.67,0,0,1-1,.1,6.17,6.17,0,0,1-1.62-.81,4.5,4.5,0,0,1-.9-1.09l-.62-1.38a35.22,35.22,0,0,0,.52-3.52,14,14,0,0,1,.33-2.28s.19-1,0-1.24-.52-.76-1-.86-2.28-.19-2.66-.24a.79.79,0,0,0-.62.19l-2.62.14a1.15,1.15,0,0,1-.19-.62c0-.24.57-1.09.9-2.19s1.28-2.23,1.62-3.42.57-1.38.67-1.86.33-.62-.24-.85a4.18,4.18,0,0,0-2.09-.14,7.35,7.35,0,0,0-2.09.62c-.62.24-.52.38-.71.86a5.71,5.71,0,0,1-.76,1.81A5.24,5.24,0,0,1,62,100c-.43.14-2.19.43-2.52.47A3.63,3.63,0,0,1,58,100.2a4.32,4.32,0,0,1-2.09-2,7.33,7.33,0,0,1-.81-2.38A15.76,15.76,0,0,1,54.76,94a6,6,0,0,1,.62-2c.29-.71.71-2.14,1-3.09a15.42,15.42,0,0,0,.43-2,9.49,9.49,0,0,1,.57-1.43c.24-.38.48-.38,1.24-.9a11.83,11.83,0,0,1,1.85-.76,14.07,14.07,0,0,0,1.9-1.33,3.86,3.86,0,0,1,1.33-.67c.38-.19.9,0,1.28.24a17.05,17.05,0,0,0,2.57,1c.43,0,.67.33,1,.33s.57-.09.67-.62a1.89,1.89,0,0,1,.48-1.09,4.35,4.35,0,0,1,2.57-.9c.52,0,1.24.62,1.66.76s.76.57,1,.57,1.09.19,1.28,0a.42.42,0,0,1,.62-.14,4.54,4.54,0,0,1,1,1,1.89,1.89,0,0,1,.62,1.19c0,.62-.38,0-.48.57a3.44,3.44,0,0,0,.38,2,27.88,27.88,0,0,0,1.09,2.57c.24.29.62.76,1,.52A4.73,4.73,0,0,0,81.49,88a4.83,4.83,0,0,0-.09-2.14,14.73,14.73,0,0,1-.24-1.9c-.1-.86-.19-.43-.29-1.14A4.92,4.92,0,0,1,81,80.9c.14-.43.38-.43.62-1a2.71,2.71,0,0,1,.9-1.09c.52-.47,1.28-1,1.85-1.43s1.24-.76,2-1.28a2.29,2.29,0,0,1,1.19-.57,4,4,0,0,0,1.71-1,10.59,10.59,0,0,0,1.24-1.14,6.5,6.5,0,0,0,.62-1.28c.33-.67.19-.57.14-1.19s-.43-.29-.43-.29A8.6,8.6,0,0,1,91,69.39a1.58,1.58,0,0,1,.43-.81,1.49,1.49,0,0,1,.47.62c.14.38.19.48.57.38s0-.62.14-1.09.38-.67,1-1.24a4.61,4.61,0,0,1,1.81-.76,1,1,0,0,0,.71-.81,1.59,1.59,0,0,1,.81-1A6,6,0,0,1,98,64.21a9.27,9.27,0,0,1,2-.38,5.42,5.42,0,0,0,1.66-.76,1.37,1.37,0,0,0,.48-.9,3.29,3.29,0,0,1,.48-1.28,8.82,8.82,0,0,1,1.52-.76c.52-.24,1.85-.76,2.38-1l1.85-.86,1.57-.62c.38-.14,1.24-.38,1.24-.38s.71-.14.86,0,0,.38-.19.47-.9.29-1.43.52a4.25,4.25,0,0,0-1.19.86.64.64,0,0,0,0,.86c.19.14.48.48.66.43s.9-.52,1.38-.76,1.28-.71,1.67-.86,1.28-.19,1.9-.43a5.43,5.43,0,0,0,1.66-.81,1.74,1.74,0,0,1,.86-.48c.38-.14.29-.38.09-.62s-.76,0-1.19,0a4.14,4.14,0,0,0-1.19.33,2.85,2.85,0,0,1-1-.1,3.2,3.2,0,0,1-1.14-.76,5.49,5.49,0,0,1-.76-1.33c-.14-.33.57-.57,1-1a8.64,8.64,0,0,0,.9-1.28c.38-.52,0-.76,0-.76s-.71,0-1.14-.1a16.51,16.51,0,0,0-1.86.14c-.14,0-2,1-2.57,1.24a4.1,4.1,0,0,1-1.62.52c-.24,0,0-.43.29-.71a16.35,16.35,0,0,1,2.52-1.43c.76-.33,1-.38,1.66-.67a8.61,8.61,0,0,1,2-.52l2-.19s1.76.29,1.95.29,1.66-.14,2.23-.24,1.33-.33,2-.47,1.95-.76,2.47-.81a9.38,9.38,0,0,0,2.38-1.33,5.46,5.46,0,0,0,1.24-1.24s.52-.62.43-.9a4.53,4.53,0,0,0-1.28-1.33c-.62-.48-.9,0-1.66-.14s-.76.09-1.14.38-.57.33-.67-.1.62-.52.62-.52.38-.24.38-.47,0-.33-.71-1.43.38.14.38.14A7.23,7.23,0,0,1,123,40c0-.38.29-.33.48-1.19s-.09-.29-.43-.71,0-.71,0-1.66-.33-1.14-.33-1.14-.24-.66-.76-.52-.48.57-1.57,1.38a8.87,8.87,0,0,1-1.9,1.19c-.76.38-.76.47-1.19.38s-.62-.48-.9-1,0-.43.29-1.24.14-.81-.09-1.43a2.5,2.5,0,0,0-1.47-1.38,15.11,15.11,0,0,0-2.28-.81,18.21,18.21,0,0,0-2.62-.29,2.3,2.3,0,0,0-1.33.48,2.49,2.49,0,0,0-1.19,1.43,14.58,14.58,0,0,1-1,1.81c-.33.67-1.19.81-1.47,1s-.14.48-.29,1.28.24.43.43.67,0,.66-.19,1-.48.43-.57.81a2.88,2.88,0,0,1-1,1.19,11.06,11.06,0,0,1-2.14,1,6.66,6.66,0,0,0-1.66,1.09A4.44,4.44,0,0,0,98.94,45a17.9,17.9,0,0,1-.57,1.85,2.13,2.13,0,0,1-.86.86s-1.09.52-1.24.57-.43-.14-.71-.43A2.88,2.88,0,0,1,95,46.33c-.14-.71.19-1.09.43-1.76a6.38,6.38,0,0,1,.47-1.09c.19-.38.43-.52.14-1s-.76-.43-1.24-.48a16.21,16.21,0,0,1-1.9-.43c-.76-.19-.76-.81-1.52-1.09s-1.33-.81-1.81-.86a5.55,5.55,0,0,1-1.76-.38,2,2,0,0,1-1.14-1.14c-.38-.81-.14-.76-.48-1s-.38-.14-.38-.62.43-.85,1-1.47a11.34,11.34,0,0,1,1.71-1.19,17.4,17.4,0,0,1,1.9-1.19c.33-.19,2.62-1.24,3-1.43s1-.19,1-.71.14-.86.14-.86l1,.1A16.32,16.32,0,0,0,98,29.4a14.77,14.77,0,0,0,2.42-.76c.48-.19.38-.33.38-.33a4,4,0,0,0-.76-.9.8.8,0,0,1-.38-.57,1,1,0,0,1,.67,0,5.39,5.39,0,0,0,1,.52,8.63,8.63,0,0,0,1.57-.52,2.91,2.91,0,0,0,.86-.66s3.76.09,4.18,0a3.31,3.31,0,0,0,1.38-.71c.86-.57.76-.48.9-.86a1.38,1.38,0,0,1,.67-.81,1.69,1.69,0,0,0,.81-.9c.19-.47,0-1-.24-1.09a10.77,10.77,0,0,0-1.71-.28,6.52,6.52,0,0,0-1.43.19c-.57.14-.43.43-.71.81a6.79,6.79,0,0,1-1.52,1.24,3.76,3.76,0,0,1-1.71.67c-.52.14-.48.09-.62-.19s.29-.62.76-1,0-.43-.14-.71a1.06,1.06,0,0,0-1-.47c-.62,0-.86.14-1,0s-.29-.86-.33-1,.29-.71.48-1,0-.52-.14-.81-.48-.57-.81-.52a9.06,9.06,0,0,0-2.14.86c-.9.48-1.43.71-1.76,1s-.19.43,0,.62.48-.14.57,0,.62.76.62.76a9.17,9.17,0,0,1-.76,1,1,1,0,0,1-1,.38,1,1,0,0,0-.71.14,10.29,10.29,0,0,0-1.33.81,8.43,8.43,0,0,1-1.14.71,2.68,2.68,0,0,0-1-.71c-.67-.29-.48-.43-1-.52a2.34,2.34,0,0,0-1.57.24c-.62.28-.76.14-1.47,0a20.75,20.75,0,0,0-2.14-.57c-1.19-.24-1-.33-1.28-.33a5,5,0,0,0-1.33.48,7.12,7.12,0,0,1-1.24.24,1.7,1.7,0,0,0-1.24.9c-.38.62-.76,1.14-.76,1.14s-.29.11-.41-.54a3.07,3.07,0,0,0-.6-1.25c-.18-.3-.48-.24-.9-.3a2.54,2.54,0,0,0-1,.12l-.78.24H74.89l-.24-.42a2.13,2.13,0,0,1,.6-.36.3.3,0,0,0,.24-.42c-.06-.18-1.2-.24-1.55-.36s-1.67-.42-2-.6a17.66,17.66,0,0,0-2.39-.66,7.84,7.84,0,0,0-2-.06c-.3.12-.6.48-.9.48a3.09,3.09,0,0,1-1.2-.48c-.42-.24-.84-.9-1.32-.84a1.82,1.82,0,0,0-1.14.66c-.24.3-.72.18-1,.06a3.75,3.75,0,0,0-1-.12,11.23,11.23,0,0,0-1.91.36c-.36.18-2.39.6-2.87.78a6.43,6.43,0,0,1-2.21.24,13.85,13.85,0,0,1-3.71-.6A54,54,0,0,0,42,20.29c-2.69-.3-5.38-1.14-8.73-.48s-4.54.6-6.46,1.25a16.93,16.93,0,0,1-3.71,1.14,11.56,11.56,0,0,0-2.81.48c-.48.24-1.14.42-1,.9a1.7,1.7,0,0,0,.78,1c.48.36.54.3.12.72a4.91,4.91,0,0,1-1.43.78,1.4,1.4,0,0,1-.84.06l-.84-.24a4.38,4.38,0,0,0-2.39.18c-.9.48-1.67.6-2.21,1s-.6.66-.6.84.3.42,1,.6a9.64,9.64,0,0,0,2,.24,2,2,0,0,0,1.14-.36c.6-.3,1-.36,1.14-.24s.48.36.3.54-.6.12-1.08.54a5.84,5.84,0,0,1-1.08.84,12.64,12.64,0,0,1-1.85.36c-.66.06-2.09.12-2.63.18a9.83,9.83,0,0,0-2.33.9c-.42.24-.66.3-.78.66a2.27,2.27,0,0,0-.06,1.08c.06.24.3.48.24.66a3.66,3.66,0,0,0-.3.66c-.12.42-.24.36-.9.72s-1,.36-1.14.72-.48.48,0,.6a3.17,3.17,0,0,1,1.2.6c.54.36.66.48,1.14.24s1-.72,1.37-.72,1,.06.48.48a3.9,3.9,0,0,1-1.25.6c-.42.18-4.48,2.09-4.48,2.09s-2,.6-2.39.78a1.62,1.62,0,0,0-.72.72c-.06.18,1,.24,1.55.24a8.7,8.7,0,0,0,2-.48,28,28,0,0,0,3-1.2c.84-.42,3-1.56,3.71-1.79s1.37-.36,2.21-.6A30.12,30.12,0,0,0,16.25,36a14.52,14.52,0,0,0,1.5-.66,1.75,1.75,0,0,1,1.49-.24,4.27,4.27,0,0,0,1.26.24,4,4,0,0,0,1.25-.18,14.9,14.9,0,0,0,1.55-.6A12.07,12.07,0,0,0,25,33.8a4.89,4.89,0,0,0,1.14.24,8.61,8.61,0,0,1,1.91.42,12.06,12.06,0,0,0,2,.48c.84.12,1.43-.12,1.79.24a3.48,3.48,0,0,0,1.08.9c.72.42.3.42,1,.84a9.48,9.48,0,0,0,1.55.6,2.18,2.18,0,0,1,.9.78c.3.42.72,1.08.6,1.37s-.48.3-.48.48-.24.42,0,.78A2,2,0,0,1,36.93,42a2.66,2.66,0,0,1-.48,1,2.72,2.72,0,0,0-.72,1.19,3.62,3.62,0,0,0,.18,1.26l.3.84s-.78.36-.78.72a2.15,2.15,0,0,0,.48,1.08,3.23,3.23,0,0,0,1.2,1.2,3.41,3.41,0,0,1,1.32,1.43,1.8,1.8,0,0,1,.24,1.67c-.18.36-1,1.5-1.14,1.73s-.66.3-.66.12.78-.6.42-.9-2.21-.12-2.21-.12l-.24,1.26s-1.08,2.15-1.49,2.75-2.15,2.21-2.63,3a12.16,12.16,0,0,0-1.08,2.21,10.6,10.6,0,0,1-1,1.67s-.9.42-1,1a3,3,0,0,0,.12,1.19,3.8,3.8,0,0,1-.42,1,1.16,1.16,0,0,0-.06,1l.14.55s.38.38.59.63-.21.63-.21.63-.5,0-.17.63a8.47,8.47,0,0,1,.54,1.59l.25,1.93a2,2,0,0,0,1,1.26c.71.29,1.22.29,1.59.76s0,.38.38,1a4.6,4.6,0,0,1,.46,1.26,3.87,3.87,0,0,1-.21.84A5.67,5.67,0,0,0,31.52,81l.84,1.59a11.54,11.54,0,0,1,.59,1.13c.17.42.21.63,0,.92a5.89,5.89,0,0,0-.46,1.22s-.13,0,.33.55.5.76.84.88a2.19,2.19,0,0,1,.71.67s.59.29.67.63-.13.21-.34.55-.08.59,0,1.09.38.46.71.84,0,.46.5,1,.55.71,1,.84.63.34.88,0,.21-.34,0-.8-1-1.93-1-1.93-.25-.88-.42-1.76a11.78,11.78,0,0,1-.17-1.89S36,85.9,35.5,85a20.12,20.12,0,0,1-1.34-2.94c-.08-.46-.46-1-.38-1.3a9.37,9.37,0,0,1,.38-.92s.38-.63.88-.38.75.34,1,.76a4.33,4.33,0,0,1,.17,1.47,4.54,4.54,0,0,0,.38,1.8A12,12,0,0,0,38,85.73a16.46,16.46,0,0,1,.88,1.6,6.68,6.68,0,0,0,.08,1c.08.46,0,.59.5,1s1.09,1,1.55,1.51a5.76,5.76,0,0,1,.88,1.43,6.38,6.38,0,0,1,.75,1.39c.34.84.46.76.5,1.17a2.42,2.42,0,0,1-.29,1,4.56,4.56,0,0,1-.17,1.34c-.21.84-.34.8.13,1.26a24.46,24.46,0,0,0,2.14,2,7.23,7.23,0,0,0,2.31,1.17c1.17.38,2.52,1.22,3.4,1.6s2.64,1.26,2.64,1.26a3.59,3.59,0,0,0,1.59.46,8.77,8.77,0,0,0,1.72-.63c.67-.25.84-.38,1.34-.17a8.32,8.32,0,0,1,1.59.92c.38.3.29.46.84,1.26s.63,1,1.51,1.3a16.14,16.14,0,0,1,1.93.71,4.24,4.24,0,0,0,1.55.55c.8.13.92-.17,1.47,0s.29-.08.42.54a2.3,2.3,0,0,0,.76,1.3c.42.46,1,1,1,1s.21.17.17.84-.38.76.08,1.26.55.71,1.13.84.88.46,1.43,1,.38.92,1,1.05.5-.25,1.22,0,.63.5,1.17.84,1,.71,1.64.54.84,0,.88-.76-.34-.88.25-1.17a1.6,1.6,0,0,1,1.26-.25c.5.08.63.38,1,.54s.46.21.21.54-.55.5-.21,1.13A5,5,0,0,1,81,119.9a6.4,6.4,0,0,1,.29,2.52,14.23,14.23,0,0,1-.63,2.6l-1.3,1.8s-.88,1.13-1.51,1.89a11.5,11.5,0,0,0-1.47,2.35c-.42.84-.59.71-.55,1.51s0,1.47.46,1.51,1,0,1.09.25-.17.17-.42.67a8,8,0,0,1-.92,1.47c-.5.67-.84,1.09-.55,1.47s.08.84.46,1.55a3.26,3.26,0,0,0,.84,1s.5,0,1.18,1a12.81,12.81,0,0,1,1.47,2.81c.46,1.17,1.51,3.36,1.51,3.36s.08.59,1.22,1.72a7.9,7.9,0,0,1,1.64,2.77c.5.92.92,2.22,1.55,2.6a21.68,21.68,0,0,0,2.39,1.26,18.93,18.93,0,0,1,2.77,1.76c.8.5,1.43,1,1.43,1l1,1.43a4.73,4.73,0,0,1,1,1.59,17.32,17.32,0,0,1,.5,2.56,7,7,0,0,1,.08,2.31c-.17,1-.5,1.13-.55,2.18a2.75,2.75,0,0,0,.46,1.76,1.74,1.74,0,0,1,0,1.64,5.76,5.76,0,0,0-.29,1.38,28.77,28.77,0,0,0,.46,4.74c.46,2.44.46,2.64.71,3.95a14.36,14.36,0,0,1,.38,3.57c0,1.38-.33,3.44-.33,3.44a3.27,3.27,0,0,0,0,1.76,5.66,5.66,0,0,1,.59,1.59,19.68,19.68,0,0,0,.17,2c.21,1,.17,1.13.8,1.6a21.06,21.06,0,0,1,1.8,1.55c.25.25.17.38.17.88a2.84,2.84,0,0,0,.13,1.26,5.18,5.18,0,0,0,.76,1c.42.46.63.71.5.88s-.46.8-.46.8a1.11,1.11,0,0,1-.17.8,1.1,1.1,0,0,1-.8.38.53.53,0,0,0-.42.76c.17.42.5.46,1,.67a2.69,2.69,0,0,1,1.3,1.26c.34.63.13.84.59,1.89a12.12,12.12,0,0,0,1.09,2.06,10,10,0,0,1,.84,1.43c.38.76.46.59.88.76s.67.08,1,.63,0,1.09.59,1.26a1.19,1.19,0,0,0,1-.25l.84.29a1.48,1.48,0,0,0,1.17.21c.55-.21.5-.5,1-.8s1-.42.92-.88a4.82,4.82,0,0,0-.84-1.26s-.38-.8-.17-1.13.38-1,.88-1.89.67-1,.71-1.85a1.68,1.68,0,0,0-.63-1.64c-.46-.34-1.43-.92-1.43-.92s-.76-.76-.59-1.18a3.83,3.83,0,0,1,.88-1.47,2.27,2.27,0,0,0,.8-1c.13-.38-.71-.34-.34-1a2.31,2.31,0,0,1,.88-1s.29-.25-.71-.84-1.13-1-1.13-1-.63-.88-.38-1.18.5-.38,1-.13.8.67,1.22.8.54.17,1-.5a2.77,2.77,0,0,0,.5-1.6c0-.46-.34-.71-.46-1.13s-.21-.63.34-.63,1.85,0,2.52,0a7.84,7.84,0,0,0,2.22-1,3.31,3.31,0,0,0,1-1.55,3.58,3.58,0,0,0-.55-2.22,5.81,5.81,0,0,0-1.09-1.43,7.42,7.42,0,0,0-1.17-.67c-.29-.21-.38-.38-.08-.63s.67.08,1.26.21a9.35,9.35,0,0,1,1.72.84,3.45,3.45,0,0,0,1.93.13c.5-.08.67-.33,1.43-1.13a20.83,20.83,0,0,0,1.59-2.52c.88-1.26,1.43-2.14,1.43-2.14a3.76,3.76,0,0,0,.71-1.13c.29-.71-.08-1.09.08-1.64a7.6,7.6,0,0,1,.8-1.47,7.42,7.42,0,0,0,.63-1.85,1.7,1.7,0,0,0,.21-1.38c-.21-.84-.42-.88-.5-1.43s-.08-.59.42-1A24.86,24.86,0,0,1,129,169l1.34-.54,1.34-.8s.42-.67,1-.54.5.54,1.38.38a2.24,2.24,0,0,0,1.64-.84c.8-.71.67-.67,1.3-1.89a12.07,12.07,0,0,0,1.38-4.74c.38-2.69.71-2.18.76-4.11s-.46-2.48-.25-3.73a3.89,3.89,0,0,1,1.09-2.06s.46-.08,1.09-1.26a8.94,8.94,0,0,1,1.47-2.31c.88-1.05.84-.71,1.38-1.64s.29-.76.59-1.76a15.61,15.61,0,0,0,.42-1.85s-.17-.67-.34-1.3S144.32,138.82,143.78,138.57Z"/><path class="cls-3" d="M13.5,38a16.09,16.09,0,0,0-2,.6c-.18.12-.54.42-.54.42s-.36.72.3.72A6.61,6.61,0,0,0,13,39.3a6.18,6.18,0,0,0,1.67-.48.51.51,0,0,0,.06-.78C14.57,37.86,14,37.92,13.5,38Z"/><path class="cls-3" d="M34.54,38.28a5.24,5.24,0,0,0-.78.66s-.48.36-.18.66a2.26,2.26,0,0,0,.78.6c.3.12.36,0,.54-.48a2,2,0,0,0,.24-1.08A.42.42,0,0,0,34.54,38.28Z"/><path class="cls-3" d="M36.15,40.13a.47.47,0,0,0,.12-.66c-.18-.24-.6-.36-.72-.18,0,0-.42.42-.18.6S36,40.25,36.15,40.13Z"/><path class="cls-3" d="M34.78,40.73a5.37,5.37,0,0,1-.6.6c-.18.18-.48.3-.3.6a5,5,0,0,0,1,.9c.3.24.54.6.72.12a2.85,2.85,0,0,0,.24-1.08c.06-.6.06-1-.18-1.2A.8.8,0,0,0,34.78,40.73Z"/><path class="cls-3" d="M33.94,50a2.25,2.25,0,0,0,1.14,1.56c.72.36.72.72,1.25.9a2.59,2.59,0,0,0,1.5.06.57.57,0,0,0,.18-.9c-.3-.48-.66-1-.9-1.43a2.11,2.11,0,0,0-1-.9A5.62,5.62,0,0,0,35,48.86l-.6.36C34.12,49.28,33.76,49.4,33.94,50Z"/><path class="cls-3" d="M106.26,27.78a7.41,7.41,0,0,0-2.46-.5,2.5,2.5,0,0,0-1,.39,3.49,3.49,0,0,0-.62.45,3.89,3.89,0,0,0-.78.67c-.34.39-.56.9-.22,1.18a2.35,2.35,0,0,0,1.73.22,2.83,2.83,0,0,1,1.46-.5,3,3,0,0,1,1.29.5c.45.22.84.95,1.17.39s.5-.73.39-1.34A1.74,1.74,0,0,0,106.26,27.78Z"/><path class="cls-3" d="M94.45,23.42a2.91,2.91,0,0,0,1.73-.56c.5-.34,1.06-.39,1.12-.84s-.11-.62-.56-.78a5.5,5.5,0,0,0-1.4-.17l-.9.34a4.2,4.2,0,0,0-1,.45c-.28.22-.17.84-.17.84A2.44,2.44,0,0,0,94.45,23.42Z"/><path class="cls-3" d="M94.68,17.71c.45.22,1,.39,1.46.67s.11,1,.67,1a2.66,2.66,0,0,0,1.57-.17c.73-.34,1.45-.84,1.9-1s.56-.67.84-1.23.56-.9.45-1.23-.67-.39-1.06-.28A8.46,8.46,0,0,0,99,15.8s-.5.5-.9.45-.5-.06-.67.39-.39.78-.67.62a1.28,1.28,0,0,0-.78-.34,6.5,6.5,0,0,0-1.29.06C94.51,17.09,94.23,17.48,94.68,17.71Z"/><path class="cls-3" d="M102.4,18.1a1.59,1.59,0,0,0,1.4-.22,2.87,2.87,0,0,1,1.74-.45,2,2,0,0,0,1.45-.34c.56-.39.9-.45.78-.9s-.5-.62-1-.73a5.45,5.45,0,0,0-2.12,0c-.45.17-2.13.5-2.29.9,0,0-.56.67-.5,1A.8.8,0,0,0,102.4,18.1Z"/><path class="cls-3" d="M70.28,18.6c.17.11.9.78.9.78.73.73,1.12.39,1.62.22s1.4-.67,1.9-.84L76,18.32l.39.45h1.29l.11.62-2.07.11.11.78,4.14.06L79.9,21l-4.7-.06c-.33,0-.28.28-.28.28a5,5,0,0,0,1.68.9,20.17,20.17,0,0,0,2.29,1,17.78,17.78,0,0,1,2,.5,4.9,4.9,0,0,0,2.18-.45,11.9,11.9,0,0,0,1.51-.9,1,1,0,0,1,1.12-.06c.39.17,1.34.39,2,.56a2.71,2.71,0,0,0,1.85-.28,21.29,21.29,0,0,1,2.07-.78c.39-.11.78-.28.78-.62a1.47,1.47,0,0,0-.56-.9c-.17-.11-1.06-.17-1.34-.5s.33-.84.56-1.29.56-.73.56-.9-.06-.73-.06-.73l-1.74-.06-.39.39c-.39.39-.62.89-1,1.12s-.5.11-.56-.06.17-.62,0-1.12-.34-.45-.62-.45a6.35,6.35,0,0,0-1.45.67,2,2,0,0,1-1.62-.06,9.53,9.53,0,0,1-1.4-1A10.71,10.71,0,0,0,81,15.36a21,21,0,0,0-2.57-.5,3.55,3.55,0,0,0-2.29.22,21.76,21.76,0,0,0-2.69,1.18,26,26,0,0,1-2.85,1.57C69.83,18.15,70.11,18.49,70.28,18.6Z"/><path class="cls-3" d="M129.42,26.6c.56-.9.56-1,.39-1.46s-.84-.5-1.45-1a5.39,5.39,0,0,1-1.4-1.34c-.22-.39-.34-.22-.11-.9s.28-.84-.11-1.23a2.9,2.9,0,0,0-1.51-.62,4,4,0,0,1-1.57-.39,4.4,4.4,0,0,1-1.34-1.34c-.17-.45-.56-.89-.89-.84s-1,.5-1.34.62-1.12-.34-1.68-.67-1.46-1-1.74-1.06a6.45,6.45,0,0,0-1.85-.06,2.91,2.91,0,0,0-1.62.45s-.62.67-1,1-.73.9-.9.84-.45-.28-.34-.45,1-.9,1.29-1.29.78-.78.62-.89a3.26,3.26,0,0,0-1.12-.11,3.56,3.56,0,0,0-1.57.17c-1,.28-1.06.67-1.51.9s-1.51.84-1.57,1.12a9.93,9.93,0,0,1-.56,1c-.17.34-.39.73-.17,1.06s.73.45,1.45.73a3.21,3.21,0,0,0,1.57.17c.56,0,.73-.39,1.34-.39a7,7,0,0,1,1.73.39,5.35,5.35,0,0,0,2.24.28c.56-.17,1.18-.73,1.62-.84a2.33,2.33,0,0,1,1.68.67,3.13,3.13,0,0,1,1.12,1.29,7.88,7.88,0,0,0,1.06,2,3.34,3.34,0,0,0,1.4.9c.56.11.73.73.22.73s-1,.39-1.4.17a3.56,3.56,0,0,0-1.57-.56c-.45.06-.67-.22-1.34.28a3,3,0,0,0-1.06,1.57c-.11.39-.34.34-.78.34s-.67-.45-1.23-.45a10.46,10.46,0,0,0-2.29,0,2,2,0,0,0-1.12.73.63.63,0,0,0,.39.84A1.47,1.47,0,0,0,113,29a2.48,2.48,0,0,1,1.34-.5,7.11,7.11,0,0,1,1.57,0c.17.06.28.56.67,1s.22.78.89,1.17a8.85,8.85,0,0,1,1.4.78c.67.5.56.73,1.34.84s1.79.33,2.24.05.78-.67.5-1a12.15,12.15,0,0,0-1.46-.78c-.34-.22-.62-.67-.45-.78s.39-.22,1,.11a4.89,4.89,0,0,0,1.51.78c.45.06.73.73,1.12-.06s.39-.67.22-1.62-.73-1.34-.67-1.9.39-.67.78-.84.89.39,1.45.67,1.34.89,1.79.67A2,2,0,0,0,129.42,26.6Z"/><path class="cls-3" d="M126.4,54.34c.46-.08.34-.34,1-.46s1.17-.21,1.34-.46.34-.08-.21-.88-.5-1-.75-1.18A16.14,16.14,0,0,1,126,51c-.34-.21-1,0-.67-.71s.59-.55.84-1,.5-.71.08-.8a1.19,1.19,0,0,0-1,.13c-.46.25-1.13.59-1.13.59s-.46.88-.59,1.13a5.38,5.38,0,0,1-1.18,1c-.59.46-.42.5-.8,1a4.06,4.06,0,0,1-1,.8c-.38.29-.88.71-.46.88s1.13-.13,1.64,0a4.56,4.56,0,0,0,1.76.42C124.64,54.39,125.94,54.43,126.4,54.34Z"/><path class="cls-3" d="M109.15,14.85c.8.08,3.15.21,3.69.29s3.27.21,3.74.25,1.72.67,2.69.25a6.57,6.57,0,0,0,1.93-1.13c.34-.34.67-.71-.25-.88a32.23,32.23,0,0,0-3.73-.21c-.5,0-1.68,0-1.89.08s-.55.5-1,.38-.71-.59-1-.8-1.17-1-1.72-.88a3.94,3.94,0,0,0-1.38.34l-.84.55a9.94,9.94,0,0,0-.55.84C108.61,14.31,108.36,14.77,109.15,14.85Z"/><path class="cls-3" d="M113.85,9.69a5.76,5.76,0,0,0,2.52.38,5,5,0,0,0,2.06-1c.55-.38,1.3-.38.92-1A2.94,2.94,0,0,0,118,6.88,5,5,0,0,0,116,7a9.23,9.23,0,0,0-2.73,1.17s-.75.34-.63.71S113.48,9.57,113.85,9.69Z"/><path class="cls-3" d="M119.06,10.36a2.92,2.92,0,0,0,1.13.42c.42.08-.13.46-.42.55a6.15,6.15,0,0,1-1.68.25,19.36,19.36,0,0,1-2-.34,2,2,0,0,0-1.17,0c-.13.08-.5.59,0,.84s.92.29,1.3.5a4.48,4.48,0,0,0,1.76.25c.59,0,.67-.34,1-.42a3.45,3.45,0,0,1,1.47.13,5.42,5.42,0,0,1,1,.5c.42.25.84.63,1.38.46s.92-.71,1.76-1.13a9.82,9.82,0,0,1,2.39-1,3.76,3.76,0,0,0,1.72-.38c.88-.42,1.18-.67,2-1.09a3.39,3.39,0,0,1,1.64-.55A18.87,18.87,0,0,0,134.92,9c.67-.17,2-.42,2.81-.67a18.52,18.52,0,0,0,3-1.26c.84-.46,2-.76,2.69-1.18s1.47-.84.8-1a5.16,5.16,0,0,0-2.27,0c-.71.17-9.65.76-9.65.76l-6.21.63s-3.27.34-3.61.46-.47.31-.33.59a1.19,1.19,0,0,0,.75.25c.34,0,2.48.21,2.81.29a22,22,0,0,0,2.9-.08c.29,0,.21-.34.34-.46s.46,0,.67.34-.17.38-.42.55a1.38,1.38,0,0,1-1,.34c-.55,0-2.35,0-2.69,0a14.07,14.07,0,0,1-1.93-.38,4.8,4.8,0,0,0-1.55,0,3.14,3.14,0,0,0-1.13.34c-.38.17.29.63.59.88s.63.25.67.63-.29.34-.71.29-.63-.34-.92-.38a7.22,7.22,0,0,0-1.43-.13C118.72,9.78,118.89,10.2,119.06,10.36Z"/><path class="cls-3" d="M174.7,21.9c.29-.13.63-.34.13-.76a4.12,4.12,0,0,0-.8-.55,1.93,1.93,0,0,0-1.3-.08c-.38.21-.5.5-1,.46s-.88,0-.59-.42.34-.25.8-.29.75.25.71-.21a1.51,1.51,0,0,0-.46-.84s-.38-.55.08-.63.29.13.8.42a6.6,6.6,0,0,1,1.17,1s.59.84,1.34.67a2.82,2.82,0,0,0,1.26-.46c.38-.25.63-.38.17-1a7.11,7.11,0,0,0-2.35-1.38c-.8-.38-1.13-.67-1.17-1s.08-.13.67-.08a6.25,6.25,0,0,0,2.06-.25,11.06,11.06,0,0,0,2.64-1.09,3.54,3.54,0,0,0,1.3-1.3,7.79,7.79,0,0,1,1.17-1.55c.71-.71,1-.8.8-1.3s-.84-.71-.46-1.13a22.44,22.44,0,0,1,1.68-1.55,4.4,4.4,0,0,1,1.17-.21,9.75,9.75,0,0,0,1.72-.25,5.64,5.64,0,0,0,2-.63c.55-.34.92-.55.63-.8a2.74,2.74,0,0,0-1.8-.21c-.59.13-2,.29-2,.29a3.5,3.5,0,0,1-1.55-.25c-.84-.34-2.35-1.09-2.35-1.09l-3.65-.59-3.06,0a13.62,13.62,0,0,1-3,.5,24.92,24.92,0,0,0-3.23-.29c-1,0-3.15.38-3.94.5s-4.78.88-5.67.92S154.9,7,154.9,7a20.64,20.64,0,0,1-3.53-.5,7.81,7.81,0,0,0-5,.08c-1.8.76-4.49,1.59-5.25,2a11.35,11.35,0,0,1-2.85,1c-.63.08-2.43.08-3.32.21s-2,0-2.14.34a.74.74,0,0,0-.17.5,11.85,11.85,0,0,1,.08,1.22c0,.34.54.76.54.76l2.48.46a6.52,6.52,0,0,0,1.55,0c.8-.08,1.13-.42,1.47-.42a8.48,8.48,0,0,1,1.93.34,7.05,7.05,0,0,1,2.69,3.11,2.69,2.69,0,0,1,.34,1.51c-.13.46-.38.59.17.84s1.17.29,1.38.67,0,.63.17,1.09a2.41,2.41,0,0,1,.08,1.09c0,.46-.5.84-1,1.3s-.88.38-1.55.84-1,.42-1.43,1a3,3,0,0,0-.71,1.59c-.08.71,0,.42.25,1s.42.55.25,1-.46,1.38-.46,1.38a3,3,0,0,0,.17,1.59c.34.92.67,1.64,2.69,2.69s2.9,1.09,3.69.84a3.28,3.28,0,0,0,1.85-1.43c.46-.71.84-1.51,1.43-2.31a19.35,19.35,0,0,1,2-2.39,6.38,6.38,0,0,1,2-1.13,12.54,12.54,0,0,1,2.22-.5,19.57,19.57,0,0,1,2.48-.38s.75-.38,1.76-.92,1.17-.84,2.14-1.34,1.18-1,2-1,.88.17,1.68.21a12,12,0,0,0,2.73-.46,27.76,27.76,0,0,1,2.81-.59A10.8,10.8,0,0,0,174.7,21.9Z"/><path class="cls-3" d="M173.57,29.54a3.8,3.8,0,0,0,1.3-.17,5.06,5.06,0,0,1,1,.42c.55.29.25.55.84.71a2.23,2.23,0,0,0,1.38,0,15.05,15.05,0,0,0,2.35-.84,17.45,17.45,0,0,0,2.14-.84,4.21,4.21,0,0,0,1.17-1c.21-.29,0-.59-.38-.92a2,2,0,0,0-1.26-.75,3.69,3.69,0,0,0-2.18.34,2,2,0,0,1-1.55.17,4.34,4.34,0,0,0-1.8-.13c-.46.13-.92.34-1.51.55s-1.22.21-1.22.59a2.24,2.24,0,0,1-.21.92C173.45,29.25,173.11,29.46,173.57,29.54Z"/><path class="cls-3" d="M187,43.18a2.1,2.1,0,0,0-1.13.21c-.63.29-.59.46-.5.88s.38.21.38.76-.17.67-.46,1.22-.42.71-.17,1.26.34,1.13.8,1,1.13-.63,1.89-.92,1.26-.38,1.8-.59.59.29.71-.76-.08-1.47.34-2,.55-.25.71-.76a1.08,1.08,0,0,0-.29-1.13c-.25-.29-1.18-.29-1.64-.29s-1.38,0-1.64.34C187.76,42.53,187,43.18,187,43.18Z"/><path class="cls-3" d="M191.45,47a.7.7,0,0,0,.67.8c.46.08,1.13.08,1.47.13s.63.5.21.63-1,.13-1.26.21a5.15,5.15,0,0,0-1.59.46c-.38.29-.55.55-.17.71a5.47,5.47,0,0,0,1.68,0s2-.38,2.52-.5a11.33,11.33,0,0,1,2.48-.38c.67,0,1.47.17,1.68-.13a.6.6,0,0,0-.17-.8c-.21-.21-.55-.13-.08-.59s1-.34,1.22-.88.25-.8-.08-1a13.9,13.9,0,0,0-1.8-.38l-.5-.76c-.34-.5-.21-.67-.59-1.43a5.32,5.32,0,0,0-1.17-1.64,1.61,1.61,0,0,0-1.18-.55c-.46,0-.8-.08-.38-.59s.8-.34,1-.71.38-.5.08-.76-.92.08-1.22-.21,0-.59-.21-.8a1.06,1.06,0,0,0-1-.17,2.74,2.74,0,0,0-.8.38,3,3,0,0,0-.55,1.22,4.84,4.84,0,0,0-.17,1.17,1.87,1.87,0,0,1,.34.92c0,.55-.08.88,0,1.13s.63.29,1,.38.67-.17,1,.34.59,1,.29,1.43-.67.17-1.13.38-.92.25-1,.55.29.63,0,.84S191.45,46.5,191.45,47Z"/><path class="cls-3" d="M122.12,129.8a8.18,8.18,0,0,1-1,.38.61.61,0,0,0-.42.38c-.12.13-.17.29.08.67a5.61,5.61,0,0,0,.8.88,2.53,2.53,0,0,0,1.09.34,9.25,9.25,0,0,0,1.26-.59.93.93,0,0,0,.46-.71,1.87,1.87,0,0,0-.84-1.09A1.73,1.73,0,0,0,122.12,129.8Z"/><path class="cls-3" d="M109.57,108.4c-.14.07-.25.13-.29.29s0,.09,0,.13,0,0,0,.08,0,.05,0,.09a.81.81,0,0,1,0,.12.51.51,0,0,0,.21.29.69.69,0,0,0,.46.13,1,1,0,0,0,.41-.18.56.56,0,0,0,.17-.45.68.68,0,0,0-.23-.39.75.75,0,0,0-.43-.07Z"/><path class="cls-3" d="M106.26,112.54c.08,0,.08,0,.15,0s.09,0,.14.05h.38c.12,0,.35-.06.41-.18a.63.63,0,0,0,0-.24,2.23,2.23,0,0,0,0-.26.5.5,0,0,0-.21-.33.84.84,0,0,0-1,0,.54.54,0,0,0-.19.38s0,.07,0,.09a1.43,1.43,0,0,0,0,.17,1.41,1.41,0,0,0,.09.24c-.05,0-.07,0-.12.05h-.09s0,0-.08,0h-.09s0,0-.08,0-.14,0-.21,0a1.21,1.21,0,0,1-.17,0l-.21,0c-.13,0-.28,0-.42,0a.78.78,0,0,0-.67,1.09l0,.21c.06,0,.09.08.13.12a1.06,1.06,0,0,0,.19.11c.13.06.25.15.39.21l.38.17a1,1,0,0,1,.2.08.49.49,0,0,0,.22.12c.21,0,.29-.07.35-.25a.32.32,0,0,0,0-.09,1.1,1.1,0,0,1,0-.13s0,0,0-.08,0-.12,0-.17.06-.16.08-.22,0-.15,0-.23,0-.06,0-.09,0-.08,0-.13a.81.81,0,0,0,0-.13c0-.06,0-.07,0-.12s0-.09,0-.13,0,0,0-.08,0-.05,0-.1,0-.08,0-.12-.1-.15,0-.2S106.22,112.54,106.26,112.54Z"/><path class="cls-3" d="M100.09,102c.36.11.57.44.75,0s.25-.86.08-1a3.84,3.84,0,0,0-1-.11c-.19,0-.08-.1-.13-.48s.23-.5-.23-.55-1.41,0-1.62,0a1.81,1.81,0,0,0-.48,0,1.36,1.36,0,0,0-.46.5c-.11.27-.27.76.08,1a4.47,4.47,0,0,0,2.25.13c.23-.13.19-.46.38-.44s.11.23.11.23S99.73,101.85,100.09,102Z"/><path class="cls-3" d="M102.92,101.49a1.93,1.93,0,0,0,.67.08s.25,0,.19-.46-.13-.57-.27-.71,0-.34-.25-.46a1,1,0,0,0-.71-.06.64.64,0,0,0-.21.61c.06.21.23.17.36.44S102.69,101.39,102.92,101.49Z"/><path class="cls-3" d="M104.22,102.21c.15.11.4.06.46.21s.4.23.4.23.36.08.42-.19a1.51,1.51,0,0,0,0-.86c-.11-.25-.73-.42-1.09-.31,0,0-.33,0-.27.31S104.08,102.1,104.22,102.21Z"/><path class="cls-3" d="M106.49,102.65c.34,0,.65.19.78-.11s.25-.48.06-.71-.38-.15-.44-.4-.61-.23-.69-.21-.31,0-.34.27-.1.67,0,.88S106.15,102.61,106.49,102.65Z"/><path class="cls-3" d="M103.66,103.76c.32.11.55.4.71-.06s.31-.65.13-.82-.46-.11-.65-.29,0-.29-.23-.46-.5-.38-.8-.19a.45.45,0,0,0-.19.55,1.84,1.84,0,0,0,.4.54s.36,0,.42.25S103.34,103.65,103.66,103.76Z"/><path class="cls-3" d="M104.83,103.91c.1.25,0,.42.33.46s.65.13.65.13.17.13.38.25.4,0,.42.23-.11.48.08.59.55.63.75.31a1,1,0,0,0,.13-1,7.71,7.71,0,0,1-.23-1c-.06-.36-.1-.44-.36-.48a10.63,10.63,0,0,0-2,.08A.33.33,0,0,0,104.83,103.91Z"/><path class="cls-3" d="M108,107.26c.25-.11.29.17.36-.44s.1-.71,0-.88a.74.74,0,0,0-.78,0,3.72,3.72,0,0,1-.38.29c-.15.13-.19.55-.19.55a2.45,2.45,0,0,0-.48.59,15.65,15.65,0,0,0-.88,1.62,4.71,4.71,0,0,1-.55,1.13,1.26,1.26,0,0,0-.21,1c.08.38.19.29.42.29s.4.19.61-.38a9.5,9.5,0,0,1,.65-1.3c.29-.57.46-1.18.82-1.74S107.77,107.37,108,107.26Z"/><path class="cls-3" d="M83.22,100c-.23-.08-1,0-1.32-.08a2,2,0,0,0-.63,0,.64.64,0,0,0-.23.69.73.73,0,0,0,.46.61c.23.08.27.27.67.36a6.86,6.86,0,0,0,1.66,0c.63,0,.86,0,.86-.36s0-.48-.27-.71A5.23,5.23,0,0,0,83.22,100Z"/><path class="cls-3" d="M86.64,100.78a4.7,4.7,0,0,0,1.13.36,5.64,5.64,0,0,0,1.34.11c.48-.06.4-.29.61-.44s.31-.15.67.11a5.2,5.2,0,0,0,1,.57,1.22,1.22,0,0,0,1.2,0,16.55,16.55,0,0,1,2-.65,11.39,11.39,0,0,0,1.51-.42c.31-.15.4-.32.19-.67a2.92,2.92,0,0,0-1-.8c-.32-.21-1.18-.44-1.59-.65a7.79,7.79,0,0,0-1.85-.17,9.54,9.54,0,0,0-2.2.06c-.42.1-.48.34-.42.59,0,0,0,.21.27.42s.34.5.21.65-.57.15-.84.11-1.32-.06-1.49-.08a6.39,6.39,0,0,0-.78,0c-.1,0-.36.08-.34.38S86.28,100.57,86.64,100.78Z"/><path class="cls-3" d="M87.71,91.61a1.14,1.14,0,0,0,.11-.75c0-.29,0-.48-.17-.57s-.59-.17-.69,0a.79.79,0,0,0-.25.63,1.75,1.75,0,0,0,.25.73S87.56,91.84,87.71,91.61Z"/><path class="cls-3" d="M86.7,92.47c.11.34.11.55.34.57A2.71,2.71,0,0,0,88,93c.21-.08.25-.31.25-.53a.47.47,0,0,0-.29-.48c-.19,0-.92-.08-1,0S86.6,92.13,86.7,92.47Z"/><path class="cls-3" d="M87.73,94.59c-.15,0-.44-.1-.5,0s-.31.17-.19.52.17.44.4.46,1,0,1.38,0,.42-.11.46-.5.13-.61-.1-.75a1,1,0,0,0-.63-.19c-.25,0-.5,0-.59.17S87.88,94.59,87.73,94.59Z"/><path class="cls-3" d="M82.09,89.87a2.25,2.25,0,0,0,.71.88c.29.23.4.5.71.59s.5.38.67-.06.27-.82.06-1.09a3,3,0,0,1-.36-.82s0-.29.31-.27.48,0,.69-.15.36-.5.13-.63a3.41,3.41,0,0,0-.84-.15c-.17,0-1.34-.15-1.51.44a.79.79,0,0,1-.25.5C82.17,89.39,82,89.62,82.09,89.87Z"/><path class="cls-3" d="M82.67,88.06c.21,0,.78.15,1-.06a1.23,1.23,0,0,0,.31-.61c.06-.21.44-.25.44-.25l.25.34.08.09c.11.13.5.93.82.91s.48.25.5-.46a2.49,2.49,0,0,0-.1-1.28.71.71,0,0,0-.65-.5c-.27,0-1.87.08-2.16.08s-.5-.06-.63.19,0,.36,0,.8S82.46,88,82.67,88.06Z"/><path class="cls-3" d="M86.53,98.37c.36-.08.31-.29.9-.4s.84.06,1.07-.21.34-.31-.23-.78a6,6,0,0,0-1.87-1,5.48,5.48,0,0,1-1.66-.78c-.5-.38-1-.75-1.76-1.2a9.13,9.13,0,0,0-1.87-.65,5,5,0,0,0-2-.57c-.88,0-2-.08-2.48,0a7.22,7.22,0,0,0-2.18.69,8.36,8.36,0,0,0-1.07.63c-.29.27-.48.59-.27.82a1.07,1.07,0,0,0,.9.32,3.14,3.14,0,0,0,1.34-.5c.57-.31.78-.55,1.24-.61s.67.13,1.07.25a9.63,9.63,0,0,1,1.59.69c.67.36,1,.84,1.74,1.15s.8.44,1,.67-.15.15-.19.55S81.6,98,82,98s1.3,0,1.78,0a7.8,7.8,0,0,1,1.26.13A4.33,4.33,0,0,0,86.53,98.37Z"/><path class="cls-3" d="M209.91,125.14a9.12,9.12,0,0,1,0,1.55,13.39,13.39,0,0,1-.17,1.85l-.55,1.76a4.29,4.29,0,0,0-.34,1.6,3,3,0,0,0,.42,1.51,5.36,5.36,0,0,0,1.09,1.47c.46.46.63.55,1.26,1.22a3,3,0,0,1,.88,1.3A3.6,3.6,0,0,1,213,139c.13.75-.13.88.38,1.72s1,1.51,1.39,2,.17.63-.08,1-.67.42-.13,1.38a6.37,6.37,0,0,1,.88,2.06c.29,1,.55,1,.13,1.76s-.71,1.43-1.17,2.27a11.26,11.26,0,0,0-.88,2.27,11.63,11.63,0,0,0-.71,2.43,10.33,10.33,0,0,0,.08,2c.08.63-.21.84.29,1.72s1,1.68,1.47,2.35a30.89,30.89,0,0,1,1.8,4.28,14.5,14.5,0,0,1,.88,3.65c.21,1.3.08,1.47.25,2.77s-.13,1.22.46,2.14.67.67,1,1.17,0,.5.59,1,.46.54.67,1,.08.8.5,1.43a18,18,0,0,0,1,1.51c.38.46.25.3.13.8a8.17,8.17,0,0,0,0,2.27c.08.46.29.38.8,1a2.73,2.73,0,0,0,1.68.71,5.73,5.73,0,0,1,1.59-.34c.84,0,1.38-.59,2.22-.59a4.32,4.32,0,0,1,1.93.17c.84.29.88.54,1.89.29a22.4,22.4,0,0,0,3.27-1.8,9,9,0,0,0,2.48-2.31c.8-.92,1.72-2.06,1.72-2.06a4.13,4.13,0,0,0,1.26-1.38,8.14,8.14,0,0,1,1-1.6,2.1,2.1,0,0,0,1.3-.88,1.63,1.63,0,0,0,.08-1.38,3.1,3.1,0,0,1-.17-2c.29-.84.46-1.09,1-1.13a12.71,12.71,0,0,0,2.48-1.38,3.7,3.7,0,0,0,1-1.51,2.53,2.53,0,0,0,.08-2.06c-.29-.63-1-1.68-1.13-2.14s-.38-.55.08-1.13,1.26-1.13,1.68-1.59a4.2,4.2,0,0,0,1-1.3c.34-.71.34-1,.76-1.22s1.68-.71,2.35-1a12,12,0,0,0,2.39-2.1,5.88,5.88,0,0,0,1-2.18,8.25,8.25,0,0,0-.25-2.39c-.08-.54-.46-1.17-.29-1.8a3.19,3.19,0,0,0,.17-1.89c-.21-.71-1.3-2.35-1.55-3.19a10.82,10.82,0,0,1-.71-3.11,9.3,9.3,0,0,1,.34-2.94,14,14,0,0,1,2.39-3.78c1.26-1.34,2-2,2.6-2.64s1.34-1.93,1.89-2.43a16.4,16.4,0,0,1,1.93-1.43c1-.67,1-.71,2-1.47a4.16,4.16,0,0,0,1.68-1.76c.46-.88.76-1.72,1.43-2.94s2.39-4.74,3-5.58a4.36,4.36,0,0,0,.76-2.56,5.67,5.67,0,0,0-.46-2c-.08-.42-.25-.38-.84-.21a15.06,15.06,0,0,1-2.4,1c-1,.29-2.92.58-3.75.74a6.18,6.18,0,0,1-2.39.37c-.78-.16-1-.45-1.61-1.19s-.12-1.07-.45-1.85-.45-.74-1.15-1.53-.45-.9-1.48-1.44-.62-.78-1.4-1.28a6.73,6.73,0,0,1-1.69-1.24,11.55,11.55,0,0,1-.54-2c-.33-1.24-.17-.7-.82-1.53s-1-1.11-1.44-1.65a5.15,5.15,0,0,1-.95-1.77c-.25-.78.08-1.85-.12-2.43s-.7-.66-1.61-1.94a8.18,8.18,0,0,1-1.2-2.88L245.48,88A15.67,15.67,0,0,1,244,85.58a2.7,2.7,0,0,0-.82-1.32c-.41-.45-.66-.58-.95-.86s.08-.54.25-.7.62.45,1,1.07.21.54.54.91.58.74.87.82.41.08.58-.29-.08-1.11,0-1.52.37-.25.58.29a9.62,9.62,0,0,1,.5,1.77,5.31,5.31,0,0,0,.91,2c.62,1.11.95,1,1.73,2s.86,1.28,1.44,2.1,1.07.86,1.44,1.61.17.91.45,2.14a6.37,6.37,0,0,0,1.32,2.55c.45.62,1.19.78,1.57,1.57s.58.86,1,1.77,1.11,1.19,1.57,1.81,0,.7.33,2.1a9.78,9.78,0,0,0,.62,2.47c.41,1,.82,2,1.44,2.1a6.79,6.79,0,0,0,3-.74c1.19-.49,2.27-.91,3.3-1.4a28.06,28.06,0,0,0,3-1.32A9.41,9.41,0,0,0,272,105c.7-.74.45-.83,1.28-1.36a5.19,5.19,0,0,1,1.94-.86,5.24,5.24,0,0,0,2-.62c.82-.5,1.15-1.24,2-2.27a7.16,7.16,0,0,0,1.15-2.22A5.63,5.63,0,0,1,282,95.83c.66-.58.49-.29.54-1s.12-.54-.58-1.28A6.58,6.58,0,0,0,280,92c-1-.58-1.73-.82-2.06-1.07a1.3,1.3,0,0,1-.54-1.15c0-.58.25-.45.21-.83a2.7,2.7,0,0,0-.41-1.07c-.25-.45-.66,0-1.11.41a16.89,16.89,0,0,1-1.77,2,4.36,4.36,0,0,1-1.94,1.07c-.7.12-.87-.21-1.32-.45s-.21-.58-.25-1.28-.21-.66-.45-1-.74-.08-1.11-.08-.29-.62-.29-.62a.57.57,0,0,0-.54-.37c-.41,0-.37.45-.37.87s-.08.37-.41.08-.17-1-.62-2-.49-.78-1-1.44a7.93,7.93,0,0,1-.95-1.65s.33-1.28.95-1.52a1.51,1.51,0,0,1,1.69.66,5.84,5.84,0,0,1,1.15,1.69A3,3,0,0,0,270,85.82c.74.62,1.4.62,2.27,1.15s1.4.82,2,.74A4.38,4.38,0,0,0,276,87.1c.5-.33.33-.41.87-.12s.74.66,1.36,1.32.41.74,1,1a9.8,9.8,0,0,0,2.43.54,16.12,16.12,0,0,0,1.85.29c.62,0,1.24-.21,2-.29s2.14.37,3,.33a1.74,1.74,0,0,0,1.48-.49c.66-.49.49-.21,1.28.12s.91.37,1.28,1,.25.82.87,1.2a3.76,3.76,0,0,1,1.24.86c.62.62.49.66,1.07.7s1.15-.12,1.32.33-.25.25-.74.25-.66.12-.54.54a3.21,3.21,0,0,0,1,1.69,3.34,3.34,0,0,0,3,.41,1,1,0,0,0,.66-1.19c-.08-.25,0-.91.33-.83s.21.5.58,1.61-.08,1.19-.21,2.14.29,1.77.91,3.46,2,4.24,2.72,5.85,1.77,4.08,2.64,6,.37,1.85.66,2.39.62.54,1.32.82.7.25,1.2-.08.54-.66,1.19-1.53a4.89,4.89,0,0,0,1.07-1.81,9.14,9.14,0,0,0,.21-2.35c0-1,.12-.87.49-1.85s.08-1.2-.21-2.06-.33-.74-.21-1.28.66-1,1.32-1.69,1.28-.45,1.81-.87.21-.91.78-1.81.95-.37,1.73-.95.41-.66.66-1.24a1.75,1.75,0,0,1,.74-.82,7.31,7.31,0,0,0,1.9-.7c.74-.46,0-1.11.16-1.81s.66-.57,1.4-.78a24.18,24.18,0,0,0,2.35-.62c.91-.33,1-.58,1.65-.49s.33.41,1.2,1.57.33,1.07.78,1.69,1,.53,1.69.62.45.25,1.19,1.48.91,1.85,1.24,2.39-.08.62-.29,1.07.21,1.32.78,1.69a1.55,1.55,0,0,0,1.81,0c.45-.41.86-1.19,1.19-1.4s.45-.08.86.79.29,1.44.74,2.76a13.67,13.67,0,0,0,1.48,2.88,2.31,2.31,0,0,1,.12,2.22,3.83,3.83,0,0,0-.29,1.77,2.72,2.72,0,0,1-.37,1.65,2.35,2.35,0,0,0,.12,1.57c.25.54.49.25,1.19.66a5.49,5.49,0,0,1,1.56,1.23c.41.5.33.37.5,1.4a11,11,0,0,0,.62,2.06c.29.95.95,2.35,1.15,2.92s1.65,1.4,1.65,1.4a13.36,13.36,0,0,0,1.69,1.48,1.3,1.3,0,0,0,1.2-.21c.37-.29.25-.62-.21-2.06a23.35,23.35,0,0,0-1.07-3.13c-.66-1.57-.21-1.15-.66-1.77s-.95-.45-1.57-1.15a6.54,6.54,0,0,0-1.81-1.32c-.66-.41-.54-.66-.74-1.65s-.21-.78-.74-1.44-.82-.74-.87-1.32a12.1,12.1,0,0,1,.41-2c.16-1,.37-1.07.33-1.69s-.58-.45-.66-.91.29-.74.78-.87,1,.74,1.69,1.32.82.45,1.61.9.78,1,1.19,1.48.7,1.15.95,1.4.7.12,1.15-.16.12-.5.45-.21.49.29.45.87-.33.41-.33.9,0,1,.33,1.07a1.53,1.53,0,0,0,1.28-.45c.54-.45.54-.17,1-1.15s.82-.58,1.56-1,.95-.21,1.65-1.19.74-.91.66-2.47a6.11,6.11,0,0,0-.45-2.6,7.77,7.77,0,0,0-1.4-2.64c-.74-1-1.24-2-1.81-2.3a6.29,6.29,0,0,1-2-1.73c-.54-.74-1.07-1.23-1.07-1.77a2.24,2.24,0,0,1,.45-1.4A6.24,6.24,0,0,1,351.67,96c.54-.37.91-.21,1.52-.45s.82.12,1.36.58,0,.82.41,1.19.7.45.91,0,.41-.41.95-1.11a2.86,2.86,0,0,1,1.32-1.07c.45-.21.66-.58,1.24-.41s.41.57.95.29.45-.54,1.52-.74a9.17,9.17,0,0,0,2.59-.66c.82-.41,1.11-.7,1.32-1.19s.62-.62,1.28-1.48a8.65,8.65,0,0,0,1.15-3.09,25.44,25.44,0,0,0,.91-3.75c.12-1,.37-1.44.13-1.94s-.74,0-1.2-.21-.58-.33-.25-.58.7-.25.54-1-.37-.82-1.2-1.4a8,8,0,0,1-2-1.89,4.74,4.74,0,0,1-.58-1.28c-.29-.82-1.07-.66-1.61-.91s-.29-.37-.08-.95a5.54,5.54,0,0,1,.45-1.32,2.44,2.44,0,0,1,1.07-1c.33-.25,1.11-.33,1.52-.78s.08-.49-.91-.87a6.36,6.36,0,0,0-1.81-.53,1.73,1.73,0,0,0-1.15.29s-.33.7-.7.45-1-.49-1.69-.91a10.85,10.85,0,0,1-1.52-1.07c-.41-.37-.17-.37.29-.62A12,12,0,0,0,359.7,67c.41-.29.37-.62.53-.95a4.46,4.46,0,0,1,1.15-1.19c.41-.29.66-.12.95.25s.17.29.25,1.24.29.91.58,1.19.91.08,1.4-.29a3.17,3.17,0,0,1,1.2-.74c.49-.12.78.25,1.4.58s.62.25.74,1-.21.82.12,1.28.95.08,1.44.33A5.64,5.64,0,0,1,371.07,71a6.45,6.45,0,0,1,1.32,2.39c.45,1,.54,1.57.74,1.89s.74.08,1.36-.29,1.73-.74,2.35-1.07.25-.62,0-1.4a4.75,4.75,0,0,0-.95-1.89c-.74-1-.54-.62-1.77-1.44a27,27,0,0,0-2.43-1.44c-.66-.37-.78-.62-.54-1s.95-.41,1.53-1,.49-.78.25-1.32-.62-.49-.54-1,.45-.66.78-1.36.08-.58.78-.82.82.37,1.4.45.74.25,1.61-.45.66-.74,1.19-2.1a7.84,7.84,0,0,0,.78-3.3V53a5.38,5.38,0,0,0-.25-2.39c-.37-1.19-.49-1.15-1.07-1.4s-.45-.17-1-.78-.66-1.56-1.24-2.43-.62-.33-1.32-.7-.54-.66-1.28-1.28a1.79,1.79,0,0,0-1.69-.49c-.66,0-.78.37-1.24.7s-.41-.12-1.4-.45-1.52-.54-2.06-.74-.7-.37-.45-.86a7.56,7.56,0,0,0,.74-1.73c.37-1.15.29-1.52.58-2.22a2.94,2.94,0,0,1,1.32-1.48,6.17,6.17,0,0,1,2.27-.49c.95-.08,1.77.49,2.72.37a6.18,6.18,0,0,0,2.26-.66c.45-.29,1,.21,1.48.37a8.88,8.88,0,0,0,2.55.62,2,2,0,0,0,1.4-.41c.41-.33.17-.66,0-1.44a1.75,1.75,0,0,1,.08-1.24c.17-.62,0-.91.49-1.19s1.2,0,1.77.16a5.09,5.09,0,0,1,1.57.78,1.69,1.69,0,0,0,1.19.45c.49,0,.66-.12,1-.66s-.12-.29-.33-.91.54-.54.87-.7.33.08,1.11.87.66.7.58,1.56-.62.78-.82,1.36a11.13,11.13,0,0,1-.45,2.14,8.7,8.7,0,0,0-.53,1.81c-.16.49.12.45.66,1.4s.95.95,1.69,1.94a7.74,7.74,0,0,0,2.18,2.14,13.91,13.91,0,0,1,1.69,1.24,5.25,5.25,0,0,1,1.19,1.36c.49.66.41.74.78.95a1.65,1.65,0,0,0,1.57-.12c.41-.33.62-.17.49-.78a4.72,4.72,0,0,0-.62-1.4c-.29-.58.25-.33.37-.7s-.25-.41-.54-.82-.12-.7.21-1.07.87,0,.53-.66a19.74,19.74,0,0,0-1-1.81c-.58-.95,0-.95-.62-1.57a4.71,4.71,0,0,0-2.14-1.28c-1.11-.37-.66-.16-1-.7s-.66-.49-1-1.11,0-.54.91-.95a19,19,0,0,1,2.1-.62c.78-.29.58-.54,1.69-.78s.66.37,1.32.66.54.41,1.07.08.54-.29,1-1.11a3.87,3.87,0,0,1,1.19-1.36,2.07,2.07,0,0,1,1.69-.54c.58,0,.49.58,1.11.29s.62-.16.95-.66.33-.58-.66-1a12.46,12.46,0,0,0-2.88-.95c-1.52-.37-1.9-.7-2.47-.82s-.83-.08-.58-.58.58-.21,1-.08.74.37,1.24.33.33-.17.29-.58-.91-.54-.91-.95.95-.08.95-.08l1.4.33c.87.21.45.45,1.36.41s.41-.33.7,0a9.42,9.42,0,0,0,2.06.78,4.74,4.74,0,0,0,2.14.41c.95,0,1.19-.49,1.19-.49s.21-.49-.82-1.07a8.76,8.76,0,0,1-1.89-1.52,3,3,0,0,0-1.85-.62c-1,.08-1,.49-1.48.58s-.7-.33-1.32-.58a12.08,12.08,0,0,0-2.35-.95,12.5,12.5,0,0,0-2.51-.33c-1.36-.08-1.24-.29-2.72-.78a25.71,25.71,0,0,0-3.62-.91c-1.73-.37-3.17-.66-4.9-.87s-2-.17-3.17-.37a4.89,4.89,0,0,0-2.22,0c-.62.12-.21.33.12.82s.95.45.82.7-.37,0-1.28-.25-1.77-.54-1.77-.54a14.09,14.09,0,0,0-2.76-.41,8.42,8.42,0,0,0-2.39.29,6.38,6.38,0,0,1-3.25-.29A17.73,17.73,0,0,1,368,20c-.78-.41-1-.33-2.1-.25a22,22,0,0,1-2.68.25c-.95,0-1.89-.16-2.88-.21l-2.8-.12-2.06-1a7.76,7.76,0,0,0-2.22-.74c-.58-.08-.21.25-.58.45s-.58-.21-1.2-.54-1,0-1.77-.29a10.85,10.85,0,0,0-2.51-.37,7.49,7.49,0,0,0-2.72.41c-.45.16-.08.33.16.78s.29.49-.33.7-.45.54-1.19.49a10.06,10.06,0,0,1-1.69-.33c-.87-.17-1.61-.25-1.61-.25a3.16,3.16,0,0,0-1.48.41c-.66.41-.49.58-1.07.7s-.91-.21-1.73-.7a21.3,21.3,0,0,0-2.22-1.28c-1-.49-1.15-1-2.14-1.32a11.06,11.06,0,0,0-2.55-.37s-2.06.12-3,.29-1.11.49-1.81.37a20.18,20.18,0,0,1-2.1-.45c-1.11-.29-2.1-.45-2.1-.45s-1.32.37-2.06.49a2.15,2.15,0,0,1-1.69-.37,6,6,0,0,0-1.85-.45,3.46,3.46,0,0,0-1.48.21s-1.52.45-1.9.53-.74.37-1.07.25-.37,0-.12-.49.62-.33,1.73-.91.86-.33,1.4-.82.41-.37-.12-.91-.45-.66-1.24-1a6.1,6.1,0,0,0-2.06-.41,13.89,13.89,0,0,0-2.92,0,3,3,0,0,0-1.19.29,4.16,4.16,0,0,1-1.73-.49c-.74-.45-.74-.74-1.57-1a4.69,4.69,0,0,0-2.39.08c-.78.16-.29.37-1,.74s-.82,1.07-1.36,1.32-.62.12-1.48-.16a2.28,2.28,0,0,0-1.52-.21c-.78.08-1.77.37-2.72.45s-1.57.33-2.47.37-1.36.33-1.4.9.54.54.62.91-.29.33-1.24.41-.62-.08-1.48-.12-.74,0-1.73.41-.9.66-1.94,1.52a4.81,4.81,0,0,1-2.18,1,7.31,7.31,0,0,0-1.48-.12c-.62,0-.74.21-.86.54a1.83,1.83,0,0,0,.37,1.44c.37.62.58.58,1.11.78a4.1,4.1,0,0,1,1.69,1.28c.41.58.58.74.29,1.36a3.17,3.17,0,0,1-1,1.48c-.45.25-.91.66-1.32.66s-.62-.12-.41-.45.58-.58,1.11-1.24.33-.49-.17-1.32a8.51,8.51,0,0,0-1.48-2.06c-.66-.62-.82-1.24-1.61-2.14a6.82,6.82,0,0,0-1.65-1.65c-.7-.45-1.11-.16-1.9.08a5.33,5.33,0,0,0-1.81,1c-.66.49-.25,1.07.08,1.77s1.4,1.28,2.06,1.69.95.41,1.24.74.29.45-.33.58-.86-.16-1.4-.37a17.68,17.68,0,0,0-1.94-.62c-.66-.16-1.73-.49-2.6-.66a3.94,3.94,0,0,0-2.18,0c-1,.25-.66.58-1.61.74s-1.69.33-2.88.49-1.4.49-2.35.29-.62-.49-1.77-.53-1.11.25-2.31.58-1.28.74-2.1,1.19a2.15,2.15,0,0,1-1.73.41c-.58-.12-.62-.12-.58-.86s0-.58-.95-.87-1.19-.12-1.69.29.16.87.54,1.4.37.62-.25.86a15.52,15.52,0,0,1-2,.49c-.82.21-1.07.29-1.28.66s.13.74-.54,1.19-.66.12-1.4-.08-.62-.45-1.32-.41-.41.25-.21.74,1,.29,1.4.66-.29.29-1,.54-.58.29-1.44-.25a8.42,8.42,0,0,1-1.9-1.24c-.62-.62,0-.74-.7-1.44s-.95-.33-1.65-.82-.12-.29.54-.45.78.08,2,.21a4.26,4.26,0,0,1,2,.78,7.76,7.76,0,0,0,3.09,0,2,2,0,0,0,1.69-.95c.25-.45.37-.7-.37-1.19a9.78,9.78,0,0,0-3-1.11c-1.81-.54-2.18-1.07-3.38-1.19s-1.85.12-2.55,0a12.33,12.33,0,0,1-2.27-.95,12.49,12.49,0,0,0-2.88-.91c-.91,0-1.2,0-2.55,0s-1.48-.16-2.47-.08a19,19,0,0,0-2.92.7,22.92,22.92,0,0,1-2.8,1.07,19.46,19.46,0,0,0-2.59,1s-.21.41-.49,1.07-.33.41-1,.86A5.79,5.79,0,0,0,214,26.06a6.47,6.47,0,0,0-1,1.65c-.37.62-.16,0-1.15.91a7.94,7.94,0,0,1-2.22,1.48,19.39,19.39,0,0,1-2.18.78,6.32,6.32,0,0,0-1.65.78,2.62,2.62,0,0,0-1.07,1.73c-.17.82.29.87.33,2s.12,1.07.54,1.44A7.45,7.45,0,0,0,207.34,38c.62.25,1.65-.37,2.6-.66s.41-.41,1-.7.25.08.91,1a7.17,7.17,0,0,1,1.15,2c.62,1.36.54,1,.78,1.52a1.42,1.42,0,0,0,1.15.74c.41.08.66-.25,1.36-.54a3.92,3.92,0,0,0,1.57-1c.41-.45.41-1.19.7-2s0-.62.82-1.15.95-.41,1.36-1,.37-.58.37-1-.08-.49-.95-.78-.78-.49-1.19-.87-.33-.45,0-1.56a1.64,1.64,0,0,1,1.24-1.24,24,24,0,0,0,2.47-1.57c.7-.58.54-.91,1.07-1.61a3,3,0,0,1,1.32-.95s.45-.08.86.54.16.87-.33,1.57-.91,1.15-1.36,1.69a5.78,5.78,0,0,0-.87,2.27c-.17.74.41.95.95,1.24s.78.62,1.44.95a3.31,3.31,0,0,0,1.89.21,14.53,14.53,0,0,0,2-.41,4.39,4.39,0,0,1,1.44-.21,13.46,13.46,0,0,1,1.81.29c.74.16,0,.29-.66.62a13.46,13.46,0,0,1-1.24.66c-.49.17-.62-.12-1.4-.25a9.72,9.72,0,0,0-1.9,0c-.95,0-1.19.2-1.44.57s.12.62.62,1.28.78.62.54,1-.37.37-1.15.08a1.88,1.88,0,0,0-1.32-.16c-.74,0-.62.08-1,.54s-.16,1-.08,1.69.37.33.08.7a4.46,4.46,0,0,1-1.07,1.11,2.19,2.19,0,0,1-1.77.33c-.7-.12-.58-.29-1.32-.17a8.66,8.66,0,0,0-2.14.62c-.91.37-1.11.66-1.65.45s-.58-.37-1.32-.66a1.61,1.61,0,0,0-1.28,0,9.71,9.71,0,0,1-1.07.66c-.49.25-.45,0-.95-.45s-.25-.41,0-.78.25,0,.7.25.7-.12,1.24-.62.37-.53.21-1.19-.16-.41-.74-.74-.95.41-.95.41a2,2,0,0,1-.91.33c-.33,0-.33,0-.21-.62a7.24,7.24,0,0,0,0-1.77s-.17-.25-.7,0a3.22,3.22,0,0,0-1.44,1.19c-.62.78-.25,1.32-.08,2.39s.37.95.29,1.4-.45.62-1.19.82-1.24,0-2,.21-.49,0-.95.7-.54.82-1.24,1.07-.29.25-1.24,1.07-.91.82-1.52.91-.45.08-.87.62a5.72,5.72,0,0,1-2,1.73c-.91.41-.82.21-1.56.16s-.5.17-.95.54a2.74,2.74,0,0,1-.86.49s-1.24,0-1.81,0a1.08,1.08,0,0,0-1.11.87c-.25.66,1.07,1,1.07,1a5.22,5.22,0,0,1,2,.78,3.09,3.09,0,0,1,.82,2.1,11,11,0,0,1-.12,2.43,1.2,1.2,0,0,1-1,1.15,9.13,9.13,0,0,1-2.35.17,12.44,12.44,0,0,1-2.68-.41c-1.11-.25-1.85-.25-2.47-.37a2,2,0,0,0-1.36.49l-.54,1.65.21,1.4a16.54,16.54,0,0,0-.29,1.9,2.76,2.76,0,0,1-.54,1.61v2.27c0,.58-.12.66-.08.95s.17.54.95.62,1.69.12,1.69.12a8.67,8.67,0,0,1,1.07.74,2.05,2.05,0,0,0,1.28.58c.49,0,.87-.49,1.07-.58a11.58,11.58,0,0,1,1.69-.17,5.87,5.87,0,0,0,2-.29,10.94,10.94,0,0,0,1.89-1.44c.49-.49.7-.16.91-1.24s-.08-1,.29-1.81A4.87,4.87,0,0,1,198.28,65s1-.82,1.61-1.19a5.3,5.3,0,0,1,1.4-.66c.49-.17.33-.58,0-1s-.29-.49-.29-.49a4.33,4.33,0,0,1,1.44-.91c.82-.29.7,0,1.32.25a3.08,3.08,0,0,0,1.73,0,6.38,6.38,0,0,0,1.94-.91,12,12,0,0,0,1.4-.87,1.53,1.53,0,0,1,1.15.29,5.08,5.08,0,0,1,.95,1.61s.66.74,1.11,1.19a11.34,11.34,0,0,0,2.55,1.77,10.64,10.64,0,0,1,2.27,1.07,4.43,4.43,0,0,1,1.07,1.52,3,3,0,0,1,.21,1.73c-.08.41-.16.41-.58.58a3.67,3.67,0,0,1-1.61-.08,2.09,2.09,0,0,0-1.32.12c-.62.21-.78,0-.91.29s.16.49.82.7a8.68,8.68,0,0,1,1.85.95c.54.33.58.49,1,.37s0-.17.25-1.11.29-.82.58-1,.29.08.87-.33a1.38,1.38,0,0,0,.7-1.11,2.45,2.45,0,0,0,0-1.11c-.12-.25-.29-.12-.29-.62s.16-.45.66-.62.21.12.49.37a2,2,0,0,0,1.4.12c.37-.08.41-.37-.12-.82a2.91,2.91,0,0,0-1.52-.7c-.78-.21-.62-.25-1.57-.82a4.59,4.59,0,0,1-1.19-.91l-1-.49-.62-.74a4.53,4.53,0,0,0-.95-1.24c-.66-.62-.49-.45-.95-.66a1.09,1.09,0,0,1-.58-.62,1.07,1.07,0,0,1-.33-.82c0-.49.7-.74.7-.74a1,1,0,0,1,.91.21c.37.37.08.78.45,1.11s.82.25,1.32.33,1.07.82,1.57,1.24a5.31,5.31,0,0,0,1.56,1.15c.62.21.66,0,1.24,0s.49.08.91.54a4.61,4.61,0,0,1,.87,1.4,4.42,4.42,0,0,1,.41,1.57,5.07,5.07,0,0,0,.29,1.48c.21.78.41.7.7.95a3.81,3.81,0,0,0,1.28.66c.29,0,1,0,1.52,0s.37,0,.41.29-.45.41-.91.41-.74-.17-.82.08.17.54.33,1a3.16,3.16,0,0,0,.74,1.15c.45.54.7.7,1.07.74s.45-.25.74-1,.58-.54.62-1a3,3,0,0,0-.33-1.28c-.16-.49-.33-.53-.87-1.11s-.37-.62-.37-.82.25-.41.54-.74.49,0,.78.25.41.16.66-.08,0-.49.62-.95.49-.21.95-.29.49.12.95.33.37.33.7.37.33-.12.58-.29a4.25,4.25,0,0,1,1.19-.29c.41-.08.58-.45,1.11-.49s.54,0,.49.49-.25.41-.78.74-.49.25-1,.17-.33-.21-.82-.29-.41-.08-.49,0-.29.52-.29.52c-.25,0-.21,0-.3.76s.89.68.89.68a1.14,1.14,0,0,1,.42,1,2.75,2.75,0,0,0,.21,1.23,4.87,4.87,0,0,0,1,1.36,1.62,1.62,0,0,0,1.4.63c.59,0,.38.34.8.42a1.73,1.73,0,0,0,1.31-.13c.3-.25.68-.64.68-.64l1.31.3s.68.72,1,.76a5.85,5.85,0,0,0,1.74,0,9,9,0,0,0,1.48-.81,2.59,2.59,0,0,1,1.27-.38.69.69,0,0,1,.76.59c.08.42-.34.25-.46.63a17.19,17.19,0,0,0-.17,2.5,14.21,14.21,0,0,1-.47,2.88,3.42,3.42,0,0,1-.81,1.78,1.77,1.77,0,0,1-1.27.72,6,6,0,0,1-1.69-.21,10.44,10.44,0,0,0-2.2-.25,20.31,20.31,0,0,0-2,.51s-1.19-.3-1.91-.38a20.39,20.39,0,0,1-3.18-.68,21.35,21.35,0,0,1-2.08-.85c-.89-.38-1.44-.89-2.16-1.14a5.55,5.55,0,0,0-2.5,0c-.72.13-.59,0-1.14,1s.25,1.36,0,1.91-.47.76-1.31,1.1-.42-.21-1.1-.51a5.32,5.32,0,0,0-1.69-.55c-.81-.13-1,0-1.52-.21s-.25-.47-.76-1.14-.42-.76-1-1a6.86,6.86,0,0,0-1.95-.51,18.21,18.21,0,0,1-2-.47c-.51-.08-.64-.21-1-.76s-.59-.38-1-1,0-.76.47-1.36.25-.34,0-1-.38-.13-.34-.76.21-.63-.21-1.44-.85-.42-.85-.42a5.42,5.42,0,0,0-1.86.3,10.37,10.37,0,0,1-1.82.68,20.29,20.29,0,0,1-3.13-.09c-1-.08-2-.13-2.58-.13a8.89,8.89,0,0,0-1.48.21,8.2,8.2,0,0,0-2.33.76c-1,.51-1.27.72-2.37,1.36a5.43,5.43,0,0,1-1.69.72,11.07,11.07,0,0,1-2-.38,4.21,4.21,0,0,1-1.48-.81c-.63-.47-1-.3-1-.3-.21.08-.42.17-.88,1a4.71,4.71,0,0,1-1.26,1.72,17.15,17.15,0,0,1-2,1.38A3,3,0,0,0,183,78.05a5.34,5.34,0,0,0-.88,2.52c-.13,1.09.46,1-.54,1.85s-1,.92-2.43,2-1.51.63-2.35,1.8-1.34,2-2,3.11-1,2.27-1.34,2.69A11.74,11.74,0,0,0,172,93.88c-.34.63-.17.5-.42,1.38s-.55,1-.34,1.47a8.6,8.6,0,0,1,1,2,21.53,21.53,0,0,1,.29,2.22,4,4,0,0,1-.34,1.8,7.67,7.67,0,0,1-.76,1.64c-.46.8-.8.75-.88,1.38a2.22,2.22,0,0,0,.46,1.34s.55.21.34,1-.5.5-.5,1.18-.08.8.38,1.09.42.5.8.88.63.25,1,.38.5.38,1,1a14.07,14.07,0,0,0,.88,1.3c.76,1,1,1.38,1,1.38a12.66,12.66,0,0,0,.42,1.64,4.52,4.52,0,0,0,1.43,2c.8.71,1.47,1.51,2,1.89s.88.34,1.43.88a3.62,3.62,0,0,0,1.76,1,4.1,4.1,0,0,0,2.39.34c.59-.13,1.18-.34,2.35-.63a7.15,7.15,0,0,1,2.06-.46c.8,0,.63.13,1.64.38a3.72,3.72,0,0,0,2.64-.25c1.22-.42,2-.75,3.11-1s1.59-.67,2.35-.88.8-.42,1.47-.29.29-.17,1.55.5.76.42,1.09,1,.13.8.34,1.38a.88.88,0,0,0,.92.5,3.81,3.81,0,0,1,1.38-.34,2.94,2.94,0,0,1,1.55.29c.67.29.76.17,1,.59Z"/><path class="cls-3" d="M235.43,72.77c.29,0,.41-.62.37-.86a.52.52,0,0,0-.62-.37,4.56,4.56,0,0,0-.66.33s-.29.12-.08.54A.9.9,0,0,0,235.43,72.77Z"/><path class="cls-3" d="M242.35,75A4.27,4.27,0,0,0,244,74c.49-.45.95-.7.58-1.15s-.5-.66-.87-.33a3.23,3.23,0,0,1-.91.62c-.41.21-1.07,0-1.32.29s-.29.41.08.91S241.78,75.16,242.35,75Z"/><path class="cls-3" d="M231.23,74.46c.82.08,1.48.58,2,0s.78-.58.41-1-.58-.37-1.4-.49-2.14.08-2.47,0a1.92,1.92,0,0,0-.74-.08s-.49.08-.41.41,0,.45.7.7A6.75,6.75,0,0,0,231.23,74.46Z"/><path class="cls-3" d="M207.71,65.11c-.08.45.08.62.33,1.19s.25,1,.58,1.32.78.08,1.11-.08.58-.12.66-1.28a2.9,2.9,0,0,0-.33-2c-.25-.41-1.4-.49-1.61-.12S207.79,64.65,207.71,65.11Z"/><path class="cls-3" d="M209,63.34c.54.29.91.66,1.11.08a3.34,3.34,0,0,0,.08-1.9.8.8,0,0,0-1.28-.12c-.11.24-.62.2-.49.86S208.45,63,209,63.34Z"/><path class="cls-3" d="M202.89,66.43c.29-.25.58-.54.29-.82s-.87-.49-.95-.16c0,.13-.41.12-.17.58S202.61,66.67,202.89,66.43Z"/><path class="cls-3" d="M199,68.24c.49-.12.58-.7.74-.83s.62,0,1.15,0,.78-.25.78-.74.29-.82-.16-.87a8.44,8.44,0,0,0-1.24,0,1.15,1.15,0,0,0-.58.82.68.68,0,0,1-.7.54c-.41,0-.7.08-.62.45S198.53,68.36,199,68.24Z"/><path class="cls-3" d="M226.25,37.84c.25-.41.54-.49.12-.78s-.66-.37-.78-.54-.41-.45-.58-.21a1.54,1.54,0,0,0-.25.58c0,.25-.41.25-.41.62s.21.49.58.49S226,38.25,226.25,37.84Z"/><path class="cls-3" d="M382.61,51.85c.29.08.49.41.7.33s.37-.25.25-.74a5.83,5.83,0,0,0-1.24-1.53l-2-1.44c-1-.74-1.44-.86-1.6-1.24a3.5,3.5,0,0,0-.83-1.61c-.62-.58-.86-.78-1.28-.82a3.58,3.58,0,0,0-.87,0c-.17.12-.45.37-.08.87a24.29,24.29,0,0,0,2.06,2.39,8.43,8.43,0,0,1,1.73,1.69c.54.82.5.74,1,1.44s.37,1,1,2A24.4,24.4,0,0,0,383,55.92a2.69,2.69,0,0,0,1.73.54c.5,0,1.07.16.7-.66A6.76,6.76,0,0,0,384,54.07a10.84,10.84,0,0,1-1.4-1.69C382.4,52,382.32,51.76,382.61,51.85Z"/><path class="cls-3" d="M386.89,61.94c.45,0,.33.17.74.37a3.6,3.6,0,0,0,1.65.41c.54,0,.7-.12.82-.58s.21-.45.74-.66.7-.37.62-.74a1.09,1.09,0,0,0-.82-.86c-.54-.17-1.69-.49-2.1-.58a3.37,3.37,0,0,1-1.32-.7c-.25-.25-.74-.33-1.19-.74s-1-.87-1.24-.41c-.06.12-.45.12-.25.66s.62.91.74,1.4a1.43,1.43,0,0,1-.25,1.15c-.21.41-.74.95-.54,1.32a7,7,0,0,0,.82,1.19c.33.37.66.7,1.07.7s.54.08.45-.7S386.43,61.94,386.89,61.94Z"/><path class="cls-3" d="M391.09,73.72c.58-.7.74-.95.7-1.61a4.94,4.94,0,0,0-.5-1.69c-.33-.91-.87-1.07-.62-1.73s.66.08.45-.86a5.69,5.69,0,0,0-1.32-2.64,6.53,6.53,0,0,0-1.4-.86c-.37-.25-.87-.41-1.15-.08-.14.16-.7.45-.58.87s.45.86.78,1.6.66.91.7,1.69-.21.54-.37,1.28-.66.78-1.07,1.07a17.07,17.07,0,0,1-1.65,1.4c-.7.41-1,.82-1.4.82s-.37-.21-.78-.33-.74-.45-1.07,0a3.78,3.78,0,0,1-1.15,1.15c-.66.45-.95.37-1.28.62s-.54.45-.29.7.17.21.78.41a1.82,1.82,0,0,0,1.28.12,9.16,9.16,0,0,1,1.28-.45c.45-.08.78-.41,1.36-.41s.95-.12,1.4.37a9.18,9.18,0,0,1,.82,1.28c.25.33.45.62.66.33a8.66,8.66,0,0,0,.45-1.44c.17-.45-.08-.78.45-.74s1.77,0,1.77,0A3.12,3.12,0,0,0,391.09,73.72Z"/><path class="cls-3" d="M382.73,77.75c.45.21.62.25,1-.12s.7-.41.62-1.24.08-.95-.41-1.07-1-.29-1.19-.12-.54.29-.49.66-.66.45-.29,1S382.27,77.55,382.73,77.75Z"/><path class="cls-3" d="M381.45,77.05c-.29-.53-.82-.58-1-.91s-.33-.7-.74-.41a1.35,1.35,0,0,1-.91.21c-.29.37-.54.66-.41,1.07s.74.74,1,1a2,2,0,0,1,.58.95c.33.78.12,1.11.37,1.36a.81.81,0,0,0,1.07.12c.37-.29.45-.7.41-1.69A3.15,3.15,0,0,0,381.45,77.05Z"/><path class="cls-3" d="M371.15,89.57a1,1,0,0,0-1,.41,7.2,7.2,0,0,0-1.2,1.94c-.21.66-.37.7.08,1.44a5,5,0,0,0,1.15,1.36c.37.33.58.62.87.17a4.83,4.83,0,0,0,.74-2.1,3.49,3.49,0,0,0,0-2.06C371.57,89.74,371.48,89.41,371.15,89.57Z"/><path class="cls-3" d="M357,97.93a4.76,4.76,0,0,0-2.27.21c-.21.3-.79.37-1.07.87a1.67,1.67,0,0,0,0,1.52,1.65,1.65,0,0,0,1,.78c.54.17,1-.21,1.52-.7s.49-1,.82-1.65S357.56,98,357,97.93Z"/><path class="cls-3" d="M374.74,103.66c.16-.46-.12-.91-.29-1.36a5.68,5.68,0,0,0-1.07-1.81c-.5-.49-1.4-.17-1.4-.17a.56.56,0,0,0-.62.46c-.08.41,0,1.11,0,1.69a5,5,0,0,1-.45,1.32c-.25.66-.41.7-.21,1.32a3.94,3.94,0,0,0,.7,1.52,3.5,3.5,0,0,0,1.07.91c.7.49.66.54.87.9s0,.5,0,.5-.58-.21-.74-.08a1,1,0,0,0,0,1.11,2.52,2.52,0,0,0,.78.91c.29.17.74.41,1,.21a.73.73,0,0,0,.21-.87,4.72,4.72,0,0,0-.62-1l-.25-.37s0-.25.25-.12.41.17.83.37.58.5.86,0,.37-.25.66-.17a1.67,1.67,0,0,1,.7.37c.41.29.74.78,1,.29a1.12,1.12,0,0,0,0-1.28c-.29-.54-.17-.77-.66-1s-1.44.08-1.57,0a1.29,1.29,0,0,1-.7-.41c-.29-.33-.82-.7-.95-.91s0-.49.12-1.07A14.18,14.18,0,0,1,374.74,103.66Z"/><path class="cls-3" d="M368.19,115.6a1.38,1.38,0,0,0,0,1.07c.08.16.41.25.66.25a3.91,3.91,0,0,0,1.44-.78c.54-.42.54-.87.87-1.28s.45-.08.66-.7.46-1.48.13-1.77-.54-.45-.91,0-.58.62-1.15,1.19-.74.62-.86.91a.56.56,0,0,0,0,.49A3.66,3.66,0,0,0,368.19,115.6Z"/><path class="cls-3" d="M376.34,112.14a4.88,4.88,0,0,0,.12-1,6.73,6.73,0,0,0,.78,0c.25,0,.41,0,.45-.33s.2-.7-.17-.66-.74-.12-.95.08a1.62,1.62,0,0,0-.29.7,6.48,6.48,0,0,0-.74.17,6.27,6.27,0,0,1-1,.12c-.16.17-.62.7-.58.9a1.68,1.68,0,0,0,.45.91,2.29,2.29,0,0,0,1,.62c.17,0,.54,0,.54,0l-.33.5a1.05,1.05,0,0,0,0,1,3.09,3.09,0,0,1,.41.7.4.4,0,0,0,.62.29c.33-.17.37-.5.62-1s.45-.62.29-1a1.5,1.5,0,0,0-.66-.74c-.25-.12-.82.08-.82.08s-.2-.08-.12-.37A6.76,6.76,0,0,0,376.34,112.14Z"/><path class="cls-3" d="M378.36,111.44a4.55,4.55,0,0,0,.58.7s.5.45.66.62.49,0,.95,0,.7.21.66-.29-.12-.5-.49-1.07a7,7,0,0,0-.91-1.07c-.25-.29-1.11-.58-1.2-.45a4.56,4.56,0,0,1-.53.45A4.56,4.56,0,0,0,378.36,111.44Z"/><path class="cls-3" d="M377.62,112.68a1.07,1.07,0,0,0,.33.91,3.66,3.66,0,0,1,.54.82c.16.25.21,1,.74.49s.78-.45.45-1.15a9.29,9.29,0,0,0-.78-1.32,1.85,1.85,0,0,0-.82-.2C377.74,112.27,377.62,112.43,377.62,112.68Z"/><path class="cls-3" d="M381,114.41c0-.45-.21-.66-.41-.5s-.25.7-.45,1.2a1,1,0,0,1-.12.54c-.17.37-.49.41-1,.66s-.62.58-.74.58-.7-.2-1-.25a3.49,3.49,0,0,0-.7,0,1.65,1.65,0,0,0-.74.82c-.21.45-.49,1-.25,1.19a1.1,1.1,0,0,0,.91.08,2.75,2.75,0,0,0,.91-.5c.29-.16.49,0,.66.45a12.36,12.36,0,0,0,.62,1.65c.33.7.29.82.7,1a1.45,1.45,0,0,0,1.15-.08c.49-.16.91-.08,1-.5s-.12-.49-.37-.78-.62-.41-.25-.62.33-.12.62.17.33.54.7.5.41.33.45-.79a3.63,3.63,0,0,0-.33-2.06,4.35,4.35,0,0,0-.82-1.77C381.12,114.94,381,114.86,381,114.41Z"/><path class="cls-3" d="M352.25,138.3a2.45,2.45,0,0,0,.08-2.26c-.37-1.15-.08-1.15-.78-1.81s-1.32-.58-1.53-1.28a2.76,2.76,0,0,0-.7-1.32c-.45-.58-.78-.41-.86-.78a5.18,5.18,0,0,0-.66-1.73,4.33,4.33,0,0,0-1.73-1.36,23.28,23.28,0,0,1-2.06-1.65c-.37-.33-.78-.42-1.15-1.15a7.5,7.5,0,0,0-1.32-1.69,7,7,0,0,0-1.89-1.44,6,6,0,0,0-1.73-.66c-.66-.16-1.36-.37-1.52,0a1.14,1.14,0,0,0-.12,1.11,9.79,9.79,0,0,0,1.65,2,20.35,20.35,0,0,1,2,2.18,5,5,0,0,1,.91,1.28,8,8,0,0,0,.95,2c.58.7.91.87,1.61,1.77a6.78,6.78,0,0,1,1.32,2.27,6.65,6.65,0,0,0,.87,2,5.64,5.64,0,0,0,1.56,1.73c.83.7.21.29.95,1.11s.74.66,1.52,1,.91.37,1.48,0A3.11,3.11,0,0,0,352.25,138.3Z"/><path class="cls-3" d="M360.36,143.73c.83.17,1.56.21,2.43.37s.82.16,1.65.37,1.19.21,1.44-.25.16-.54-.08-.87-1.23-.57-1.77-.95-1.52-.33-1.9-.78a3.34,3.34,0,0,0-1.36-.87,2,2,0,0,0-1.52-.08,3.53,3.53,0,0,1-1.69.21,3.23,3.23,0,0,1-1.61-.46,9.7,9.7,0,0,0-2-.49A2.84,2.84,0,0,0,352,140c-.08.1-.62.29-.82.74s-.41.95-.12,1.11.95.41,1.56.66a15.24,15.24,0,0,0,2.1.54c.54.13,1.07.25,1.32.08s.29-.66.91-.33a4.36,4.36,0,0,0,1.53.58C359.33,143.61,359.54,143.57,360.36,143.73Z"/><path class="cls-3" d="M357.07,131.83a8,8,0,0,0,.66,2.06c.45.91.21,1.19.78,1.4s1.52.37,2.06.49a9.64,9.64,0,0,0,2.1.17c.41,0,.53-.33,1.07-.21s.41.25,1.2.54.87.33,1.19.25.58-.62,1-.78.58-.41.82-1.15A14.25,14.25,0,0,1,369,132c.45-.74.49-.45.54-1.2s-.21-.87.41-1.28.78-.16,1.07-.57.58-.5.12-.91a3.59,3.59,0,0,1-.58-.66,11.1,11.1,0,0,1-.58-1.2c-.25-.58-.49-.74-.54-1a1.44,1.44,0,0,1,.49-1c.37-.41.62-.95.91-1.2a1.37,1.37,0,0,0,.45-.91,1.35,1.35,0,0,0-.54-.82c-.29-.25-1.28-1.2-1.77-1.69a1.09,1.09,0,0,0-1-.37,2,2,0,0,0-.78.62,6.47,6.47,0,0,1-.82,1.32c-.41.37-.7.82-1.32,1s-1.28.37-1.61.45-.45.12-.66.78-.25,1-.45,1.19a7.22,7.22,0,0,1-1.4.95c-.49.25-1.2.46-1.36.79s-.29.95-.62,1.15-.62.33-.86.12-.66-.41-.95-.12a2.91,2.91,0,0,0-.58,1.19,2.24,2.24,0,0,0,0,1.28C356.7,130.31,356.82,130.93,357.07,131.83Z"/><path class="cls-3" d="M384.34,131c.41.21.87.33,1.11.08a1.41,1.41,0,0,0,.37-1.15,3.13,3.13,0,0,0-.25-1.07c-.17-.49-.5-.82-.17-1.19s.5-.33.58-.74.25-.54,0-.7-1-.45-1.36,0c-.22.32-.74.62-.83,1.15s.12.83.08,1.28a2.72,2.72,0,0,1-.33.95s-.45.25-.12.58A3.27,3.27,0,0,0,384.34,131Z"/><path class="cls-3" d="M385.08,136a6.13,6.13,0,0,0,1.85.29c.25,0,.74-.29,1.15-.41s.91-.54.37-.7-1.11-.37-1.53-.46-1.81-.41-2.22,0c-.17.17-.66.5-.41.83S384.75,135.87,385.08,136Z"/><path class="cls-3" d="M368.6,145.13a8.74,8.74,0,0,0,1.48-.37c.45-.08.95.08.95-.45s0-.7-.58-.82a9.92,9.92,0,0,0-1.85-.08,2.57,2.57,0,0,0-1.28.25c-.25.33-.78.7-.37,1.07A2.61,2.61,0,0,0,368.6,145.13Z"/><path class="cls-3" d="M372,146.54c.29.21.53.54.86.45s.58-.25.5-.79-.17-.49-.7-.74a2.23,2.23,0,0,0-1-.29c-.25,0-.58,0-.62.17s-.08.66.12.82S371.69,146.33,372,146.54Z"/><path class="cls-3" d="M374.24,145.13c.49,0,.82-.33,1.32-.29s1.2,0,1.2-.37-.16-.54-.74-.74-1.4-.45-1.85-.58-1.32-.25-1.4,0-.54.45-.45.82-.12.37.45.82A1.72,1.72,0,0,0,374.24,145.13Z"/><path class="cls-3" d="M377.5,147a2.41,2.41,0,0,0,1.52-.41c.37-.33.87-1.07,1.28-1.2a8.44,8.44,0,0,0,1.24-.41c.45-.21,1.52-.16,1.77-.41s.58-.33.08-.49-.66-.58-1.44-.62a4.31,4.31,0,0,0-2.18.25c-.7.33-.91.25-1.24.54a6.19,6.19,0,0,0-.7.95,3.45,3.45,0,0,0-.37.58c-.29.29-.7.62-.58.91S377.13,146.95,377.5,147Z"/><path class="cls-3" d="M376.88,136.9a4.08,4.08,0,0,0-.21-1.56c-.21-.49-.74-.87-.7-1.32s0-1,.41-1.15.83-.41,1.19-.58.54-.5.25-.66-.67,0-1-.08a1.68,1.68,0,0,0-1.28.29c-.17,0-.87.25-1.11.08a2.82,2.82,0,0,1-.82-.74.77.77,0,0,1,.41-.95,6.58,6.58,0,0,1,1.44-.66c.49-.12,1.28.41,1.52.58a3.08,3.08,0,0,0,1.32.49,7.85,7.85,0,0,0,1.65-.74c.62-.41.74-1.15.95-1.52s.21-.62-.16-.78a1.33,1.33,0,0,0-1.32.17,5.41,5.41,0,0,1-1.36.7,3.64,3.64,0,0,1-1.32-.21,9.25,9.25,0,0,0-1.69-.37,1.56,1.56,0,0,0-1.32.41c-.37.33-.95,1-.95,1a3,3,0,0,0-.45,1,5.73,5.73,0,0,0-.21,1.85,2.44,2.44,0,0,1-.25,1.28c-.17.33-.83,1.15-1.07,1.52s-.33.79-.21.91a7.78,7.78,0,0,1,.78.82c.25.33.45.57.25.74a1.06,1.06,0,0,0-.29.91c0,.37.08.86.58,1a1.41,1.41,0,0,0,1.36-.16,1.27,1.27,0,0,0,.49-1.15c-.08-.45-.37-.7-.45-1.23a7.5,7.5,0,0,1-.08-1.15c0-.17.29-.25.5-.45s.45,0,.58.29.08.82.37,1.24a2.31,2.31,0,0,0,.87.91c.41.21.95.58,1.15.49S376.92,137.68,376.88,136.9Z"/><path class="cls-3" d="M405.71,135c-.58-.29-1.77-.41-2.47-.78s-2-1.16-2.47-1.32a3.5,3.5,0,0,0-1.57-.21c-.45.08-.78.08-.95.45,0,0-.74.5-1.28.78s-1.2.57-1.24.82-.45.7-.58.66a6.49,6.49,0,0,1-1-1.07c-.33-.41-.17-.95-.33-1.56a2.77,2.77,0,0,0-.66-1.4,2.25,2.25,0,0,0-1.69-.37,5.17,5.17,0,0,0-1,.41,4,4,0,0,0-1.32.66c-.29.29-.37.29-.12.58s.87.37,1.4.62.74.33,1.24.58.62.37.33.58-.83.29-.87.54a1.67,1.67,0,0,0,.12.95,1.21,1.21,0,0,0,.66.74c.29.12,1.07-.08,1.48,0a9.2,9.2,0,0,1,1.24.45c.7.25,1.24.66,2.06,1a8.52,8.52,0,0,1,2.1,1.07c.66.54.17.25.7,1a5.26,5.26,0,0,1,.74,1.28c.08.25-.08.12-.58.54s-.87.37-1,.82-.25.54.5.83,1,0,1.44.08.21-.62.66-.49.41.49.86.9.45.66.95.87,1.32.17,2,.37a1.68,1.68,0,0,0,1.52-.21c.21-.21.29-1,.66-1.52s.74-.54,1.07-.74,1.24.08,1.69.41a6.45,6.45,0,0,1,1.56,1.48c.49.7.29.87.78,1.44s1.15.7,2.06,1.15a12.83,12.83,0,0,0,2.84.78c.86.21,1.4.45,1.19-.17a3.89,3.89,0,0,0-1.48-1.56l-1.77-1.2a3.36,3.36,0,0,1-.95-1.15,4.37,4.37,0,0,0-1-1.73c-.54-.5-.49-.54-.21-.87s.7,0,.21-1-.45-1.28-.87-1.61a10.58,10.58,0,0,1-1.56-1,17.35,17.35,0,0,0-2.88-2C407.28,135.54,406.29,135.25,405.71,135Z"/><path class="cls-3" d="M418.73,136c.58.33,1.2.54,1.48,1.07s.29.82.74.95.74.29.74-.25a1.62,1.62,0,0,0-.33-1.36A4.83,4.83,0,0,0,420,135a4.31,4.31,0,0,0-1.4-.79,2.24,2.24,0,0,0-1.07,0,1.1,1.1,0,0,0,0,.95A8.51,8.51,0,0,0,418.73,136Z"/><path class="cls-3" d="M422.89,141.35c.45.62.74,1.11,1.15,1s.66-.41.78-.46.37,0,.66.37.78.58.62.74-.62.12-.54.49.08.66.41.91.37.45.86.62.78.46.78-.12a1.29,1.29,0,0,0-.33-1,5,5,0,0,0-.7-.79c-.12-.08.49.13.62-.08s0-.54-.16-.87a2.47,2.47,0,0,0-.74-.87c-.33-.25-.82-.45-1-.37s-.41.58-.41.58a4,4,0,0,1-.7-.37,5.19,5.19,0,0,1-.37-1c-.16-.45-.17-.95-.41-1.07s-.66-.17-.74,0a2.22,2.22,0,0,0-.17,1A2.13,2.13,0,0,0,422.89,141.35Z"/><path class="cls-3" d="M415.1,140.4a5,5,0,0,0,1.56.87,2.78,2.78,0,0,0,1.77-.49,8.28,8.28,0,0,0,1.2-1,1.59,1.59,0,0,0,.66-.91,4,4,0,0,0,0-1.19A1.42,1.42,0,0,0,420,137a1.48,1.48,0,0,0-.66.46c-.41.41-1,1-1.36,1.28a3.09,3.09,0,0,1-1.32.7,5.75,5.75,0,0,1-1.36.12c-.37,0-.37.08-.45.29S414.65,140,415.1,140.4Z"/><path class="cls-3" d="M427.83,142.46a1.46,1.46,0,0,0-.12,1.11c.17.37.33.41.78.78a2,2,0,0,0,1.15.58c.41,0,.78.12.66-.45a2.07,2.07,0,0,0-.82-1.23,3.76,3.76,0,0,0-.95-.74A1.39,1.39,0,0,0,427.83,142.46Z"/><path class="cls-3" d="M432.77,147.69c-.12-.45-.33-.9-.54-1a5,5,0,0,0-.62-.17l-.5,0s.78-.37.78-.49a4,4,0,0,0-.12-.78,5,5,0,0,0-.29-.82c-.16-.41-.37-1-.53-.82s-.25.17-.29.62a6.64,6.64,0,0,0-.08,1.15,5,5,0,0,1,0,.66.74.74,0,0,0-.07.25,2.24,2.24,0,0,0-.3-.54,1.77,1.77,0,0,0-.74-.54c-.25-.08-.45-.12-.58,0a1.15,1.15,0,0,0-.25.41,1.26,1.26,0,0,0,.37.82c.25.25.33.49.74.54s.78,0,.95,0a.73.73,0,0,1,.41.45,1,1,0,0,0,.5.74c.41.25.7.37.86.29A.69.69,0,0,0,432.77,147.69Z"/><path class="cls-3" d="M441.5,154.36c0-.54-.41-.66-.5-.54s-.54,0-.54.37-.21.37-.08.74c-.29-.41-1.07-1.24-1.07-.82s-.41,1.11-.33,1.48.29.41.58.91.16.62.41,1.15.12.94.49,1,.54.41.66-.33a3.47,3.47,0,0,0,0-1.44c.21.21.29.7.66.17s.54-.91.29-1.44S441.5,154.89,441.5,154.36Zm-.78,1.65a6.12,6.12,0,0,1-.17-.75,3.57,3.57,0,0,1,.34.55,2.89,2.89,0,0,1,.11.82Z"/><path class="cls-3" d="M434.5,164.87c.29.33.95,1,1.4,1.44a1.66,1.66,0,0,0,1.19.54c.5,0,1-.33.7-.87s-.95-.78-1.48-1.52a10.33,10.33,0,0,1-1.11-1.65A8.91,8.91,0,0,0,434,161c-.37-.41-1-.82-1.2-.41a4.12,4.12,0,0,0-.12,1.77c.08.46-.12.46.33,1S434.21,164.54,434.5,164.87Z"/><path class="cls-3" d="M116.87,217a13.53,13.53,0,0,1-2.06-1.11,14.59,14.59,0,0,1-1.72-1.11c-.38-.36-.27-.59-.95-.72s-1.9-.36-1.94-.06a8.39,8.39,0,0,0-.41,1c-.07.36-.32,1-.36,1.22a.87.87,0,0,0,.23,1,2.9,2.9,0,0,0,1.06.72,8.66,8.66,0,0,1,1.47.38,2.56,2.56,0,0,0,1.24.45,1.68,1.68,0,0,0,1.24-.21c.43-.22.29-.18,1.06-.22s2.06.09,2.17-.13.41-.34,0-.65A2.64,2.64,0,0,0,116.87,217Z"/><path class="cls-3" d="M268.11,150.09h0l0,0Z"/><path class="cls-3" d="M269.58,154.1c0-.1,0-.18,0-.28a.54.54,0,0,0,0-.14c0-.06,0-.12,0-.18a11.21,11.21,0,0,0-.37-1.15c0-.07,0-.14-.06-.22a3.19,3.19,0,0,0-.14-.29,5.52,5.52,0,0,1-.22-.59,4.37,4.37,0,0,0-.22-.61,2.07,2.07,0,0,0-.11-.22c0-.07-.13-.14-.14-.22l-.07,0a.13.13,0,0,0-.05-.1l-.37-.12c-.14,0-.39,0-.5.05a.53.53,0,0,0-.1.27s0,.09,0,.14,0,.12,0,.18,0,.09,0,.14,0,.1,0,.14,0,0,0,.08a1.22,1.22,0,0,1,0,.18,2.88,2.88,0,0,1-.1.28l-.18.37a4.88,4.88,0,0,1-.35.5c-.15.21-.27.45-.41.66a4.43,4.43,0,0,1-.89.94c-.3.24-.59.51-.91.73l-1,.69a1.52,1.52,0,0,1-.46.23,1,1,0,0,1-.13,0s0,0-.09.05a3,3,0,0,1-.32,0,1.38,1.38,0,0,1-.23,0,2.49,2.49,0,0,0-.28,0l-.28,0a1,1,0,0,0-.22.11.88.88,0,0,0-.24.11l-.16.15a2.06,2.06,0,0,0-.46.79,1.93,1.93,0,0,1-.06.22,2.15,2.15,0,0,0-.08.24,2.75,2.75,0,0,0-.06.54,1.38,1.38,0,0,1,0,.28s0,0-.05.08a.92.92,0,0,0,0,.19c0,.09,0,.19,0,.28s0,.17,0,.28,0,.4,0,.59,0,.4,0,.6a2.69,2.69,0,0,1,0,.28.36.36,0,0,0,.08.24,4,4,0,0,1,.28.32,1,1,0,0,1,.1.54,3.53,3.53,0,0,1-.13.55,2.42,2.42,0,0,1-.2.54,2.92,2.92,0,0,1-.37.47l-.34.42c-.11.14-.2.3-.3.44a3.61,3.61,0,0,0-.35.53c-.16.33-.39.62-.56.95a2.13,2.13,0,0,0-.14.31.66.66,0,0,0,0,.24,1.29,1.29,0,0,1,0,.28,2.07,2.07,0,0,0,0,.32c0,.18,0,.37,0,.55s0,.18,0,.28,0,.21,0,.32a.56.56,0,0,0,.11.22,1.31,1.31,0,0,1,.08.19,1.46,1.46,0,0,1,0,.28s0,.09.05.13a1.15,1.15,0,0,1,0,.18,1.73,1.73,0,0,0,0,.28c0,.05,0,.08.05.13s0,.13,0,.19.06.18.08.27,0,.21.07.32.08.19.11.28,0,.08.07.13,0,.08,0,.1a3.26,3.26,0,0,0,.4.55,2.77,2.77,0,0,0,1.15.74,2.42,2.42,0,0,0,1.18,0,3.1,3.1,0,0,0,.47-.14c.12,0,.23-.12.36-.16s.44-.11.65-.19a3.79,3.79,0,0,0,1-.54,1.75,1.75,0,0,0,.41-.42c.14-.21.21-.46.34-.68A2.67,2.67,0,0,0,265,169a6.39,6.39,0,0,0,.23-.83,5.82,5.82,0,0,0,.09-.94c0-.12,0-.24,0-.35a3.64,3.64,0,0,1,0-.42c0-.24.1-.47.14-.71a5.34,5.34,0,0,0,.13-.7,1.64,1.64,0,0,1,.06-.27c0-.1,0-.18.07-.28s.13-.43.18-.64a11.22,11.22,0,0,1,.42-1.39c.09-.24.18-.48.29-.72s.14-.26.21-.4.15-.36.25-.52a5.88,5.88,0,0,0,.3-.57,2,2,0,0,1,.11-.29c.1-.16.21-.31.3-.48s.06-.07.09-.12a2.07,2.07,0,0,0,.11-.28c.06-.13.16-.25.21-.39a4.09,4.09,0,0,1,.22-.44c.07-.14.15-.27.22-.41l.09-.22a2.1,2.1,0,0,1,.16-.27c0-.09.05-.18.1-.28s.1-.17.14-.25a2.18,2.18,0,0,0,.15-.4,3.45,3.45,0,0,0,.17-.59,2.62,2.62,0,0,1,0-.29c0-.1,0-.21,0-.31a2.58,2.58,0,0,0,0-.6C269.63,154.46,269.58,154.29,269.58,154.1Z"/><path class="cls-3" d="M303.67,122.92c0-.06,0-.12,0-.18a1.37,1.37,0,0,0,0-.18.56.56,0,0,1,0-.13c0-.05,0-.11,0-.16s0-.08,0-.13,0-.11,0-.15v-.26a.44.44,0,0,1,0-.13s0,0,0-.08a.32.32,0,0,1,0-.05.07.07,0,0,0,0,0l0-.06a.47.47,0,0,0,0-.15.55.55,0,0,0,0-.11s-.05-.07-.06-.1l-.13-.15-.14,0a.4.4,0,0,0-.13,0c-.12,0-.26,0-.38,0a.17.17,0,0,0-.11,0,.32.32,0,0,0-.05.13l0,.06a.43.43,0,0,0,0,.07c0,.06,0,.12,0,.18a.94.94,0,0,0,0,.16c0,.05,0,.1,0,.15a.66.66,0,0,1,0,.15.38.38,0,0,0,0,.05s0,.06,0,.09a.26.26,0,0,1-.12.06.37.37,0,0,1-.15,0h-.36a.55.55,0,0,0-.26,0,.5.5,0,0,0-.18.24,1.26,1.26,0,0,0-.09.32c0,.15,0,.31-.07.45a.72.72,0,0,0,0,.31.58.58,0,0,0,0,.13.59.59,0,0,0,.09.15.74.74,0,0,0,.31.18h.08l.08,0c.07,0,.12,0,.18,0a2.49,2.49,0,0,0,.39.21l.11,0h.18a1,1,0,0,0,.39,0l.13,0a1.21,1.21,0,0,0,.1-.08.51.51,0,0,0,.22-.21,2.3,2.3,0,0,0,.09-.27,1.41,1.41,0,0,0,0-.31,1.3,1.3,0,0,0,0-.18C303.66,123,303.68,123,303.67,122.92Z"/><path class="cls-3" d="M316.77,118.42c-.06-.22-.19-.43-.26-.64a1.2,1.2,0,0,0-.1-.18,3.17,3.17,0,0,1-.14-.31c0-.09-.11-.17-.15-.27a1.29,1.29,0,0,0-.14-.26,5,5,0,0,0-.31-.42l-.29-.31a4.18,4.18,0,0,1-.29-.37c0-.06-.08-.12-.12-.18l-.16-.18c-.05-.06-.12-.12-.17-.19a1.65,1.65,0,0,0-.19-.22c-.06,0-.17-.15-.23-.14l-.37-.08a.66.66,0,0,0-.31.47l-.25.84c0,.06-.05.11-.07.16l-.05.23a1.71,1.71,0,0,0-.06.39,3.26,3.26,0,0,0,.05.49c0,.2.08.4.11.6s.1.37.13.56,0,.17,0,.25,0,.17,0,.26.06.29.08.43,0,.12,0,.18,0,.14,0,.21,0,.25.09.37a1.07,1.07,0,0,0,.16.28,1.9,1.9,0,0,0,.15.14.74.74,0,0,0,.27.16l.28.09h.1l.13,0H315a1.25,1.25,0,0,0,.22-.08,5,5,0,0,0,.54-.24l.22-.12.21-.11a1.34,1.34,0,0,0,.46-.37,1.08,1.08,0,0,0,.11-.34,1.35,1.35,0,0,0,.08-.34,1.48,1.48,0,0,1,0-.18,1.42,1.42,0,0,0,0-.17A1.85,1.85,0,0,0,316.77,118.42Z"/><path class="cls-3" d="M397.11,196.19l-.18,0a.79.79,0,0,0-.21.05h-.18a.62.62,0,0,0-.14.05,1.57,1.57,0,0,0-.16,0s-.11.09-.15.1a1.35,1.35,0,0,1-.18,0c-.07,0-.11.06-.18.05l-.14-.05a1.65,1.65,0,0,1-.24,0,2.36,2.36,0,0,1-.25-.13l-.35-.16-.55-.27a1.79,1.79,0,0,0-.69-.21.36.36,0,0,0-.14,0c-.08,0-.24,0-.29.1h0l-.38.19v.76a1.57,1.57,0,0,1,0,.19,1.09,1.09,0,0,1,0,.14,1.91,1.91,0,0,1-.08.37,7.76,7.76,0,0,1-.51,1.2c-.19.3-.56.87-.14,1.16a4.16,4.16,0,0,0,1.16.6.87.87,0,0,0,.38.08l.32-.06a1.82,1.82,0,0,0,.63-.3c.2-.11.37-.24.57-.35s.42-.25.63-.38.34-.25.51-.38a4.89,4.89,0,0,0,.53-.48,6,6,0,0,0,.94-1.16c.1-.2.15-.43.24-.62a2.15,2.15,0,0,0-.5-.4A1,1,0,0,0,397.11,196.19Z"/><path class="cls-3" d="M417.87,205.31l-.13-.19c-.13,0-.2,0-.32-.07s-.25,0-.38.07h-.13c-.06,0-.09,0-.14,0a2,2,0,0,0-.32.06.56.56,0,0,0,.14,1h.13s.12.05.14.05.23-.05.37-.05a1.05,1.05,0,0,0,.32-.06l.14,0,.13-.07c.15-.05.37-.12.37-.33A.56.56,0,0,0,417.87,205.31Z"/><path class="cls-3" d="M431.83,196.29s0-.09-.06-.13-.09,0-.13-.06-.11-.14-.14-.24a1.23,1.23,0,0,1-.06-.38c0-.23-.29-.35-.51-.3a2.6,2.6,0,0,0-.7.32,5.41,5.41,0,0,0-1,.89c-.36.34-.77.63-1.14.95a6.7,6.7,0,0,1-.64.48c-.2.14-.37.31-.57.44a14.45,14.45,0,0,1-1.33.86c-.44.24-.87.45-1.33.67-.85.4-1.71.66-2.54,1-.17.07-.34.18-.5.26s-.16,0-.24.08l-.25.13c-.17.09-.37.14-.54.22a2.6,2.6,0,0,0-.24.14,2.53,2.53,0,0,1-.27.11c-.19.08-.36.12-.56.21s-.3.16-.46.24a3.8,3.8,0,0,0-.49.27c-.09.06-.36.17-.37.3l.06,0-.25.25c-.18,0-.29.37-.36.51s-.18.42-.29.62-.27.33-.06.48a1.43,1.43,0,0,0,.27.13.86.86,0,0,0,.19,0c.08,0,.11,0,.18.06A5.07,5.07,0,0,0,419,205a3.65,3.65,0,0,0,.75,0,1,1,0,0,1,.14,0h.38a1.59,1.59,0,0,0,.25-.07c.12,0,.26,0,.38,0a1.24,1.24,0,0,0,.14-.05c.06,0,.12,0,.18,0a2.24,2.24,0,0,0,.7-.3c.43-.23.79-.53,1.19-.8l1.16-.79c.09-.06.16-.14.24-.21a3,3,0,0,0,.25-.21,7.13,7.13,0,0,1,.51-.51,7.38,7.38,0,0,1,1.22-.75,1.31,1.31,0,0,1,.7-.19h.19a.91.91,0,0,0,.14-.05,1.86,1.86,0,0,0,.38-.06,2.06,2.06,0,0,0,.51-.32,2.12,2.12,0,0,0,.36-.52,3.82,3.82,0,0,1,.33-.5,1.65,1.65,0,0,1,.63-.43c.21-.09.43-.12.62-.21a6.21,6.21,0,0,1,.65-.24,1.25,1.25,0,0,0,.92-.73,2.21,2.21,0,0,0,.08-.68,3.25,3.25,0,0,0,0-.81C432,196.42,431.89,196.36,431.83,196.29Z"/><path class="cls-3" d="M441.72,191c0-.1,0-.07-.06-.14l-.14-.1a.52.52,0,0,0-.18,0,.65.65,0,0,0-.21,0,4.44,4.44,0,0,1-.55.21,1.05,1.05,0,0,1-.69-.14,4.15,4.15,0,0,1-.41-.48,1.55,1.55,0,0,1-.19-.2c-.08-.11-.17-.19-.25-.3a5.23,5.23,0,0,1-.35-.54,1.2,1.2,0,0,1-.21-.68,3.7,3.7,0,0,1,.26-.5,2.05,2.05,0,0,0,.06-.76,2.45,2.45,0,0,0,0-.38,1.44,1.44,0,0,0-.18-.39,1.29,1.29,0,0,0-.41-.49c-.09,0-.19,0-.29-.09a.52.52,0,0,0-.34,0c-.2.06-.3.39-.25.58s.05.06.07.12a1,1,0,0,1,0,.19c0,.13,0,.25,0,.38a2.4,2.4,0,0,0,0,.38c0,.15.11.29.13.44s-.08.52,0,.71.33.25.38.44a1.3,1.3,0,0,1-.1.68c0,.13,0,.25-.08.38a2.4,2.4,0,0,1-.13.38c-.08.18-.05.39-.25.51a1.42,1.42,0,0,1-.25.13,2,2,0,0,0-.2,0,1.14,1.14,0,0,1-.18.08,1.74,1.74,0,0,0-.32.06l-.25.13a4.22,4.22,0,0,0-.62.52,1.38,1.38,0,0,1-.4.24l-.38.32a1.44,1.44,0,0,0-.49.4.87.87,0,0,0-.21.68.89.89,0,0,0,.17.65c.11.13.4.29.34.49s-.34.27-.5.39a4.12,4.12,0,0,1-.52.37,2.41,2.41,0,0,0-.46.3c-.22.19-.08.45.06.65a.82.82,0,0,0,.45.4,2.14,2.14,0,0,0,.32.06c.05,0,.05,0,.13,0a.09.09,0,0,1,.08-.05h.13a1.75,1.75,0,0,0,.37,0s.08,0,.14,0H435l.14-.05.14,0a1.5,1.5,0,0,0,.29-.16,5.36,5.36,0,0,0,.38-.38c.19-.17.4-.33.59-.49a6.24,6.24,0,0,0,.55-.46,4.55,4.55,0,0,1,.54-.54l.13-.08.16-.15a2,2,0,0,1,.25-.19c.19-.12.36-.28.54-.41s.09,0,.13-.06l.11-.1.27-.16c.2-.1.37-.23.57-.32a7.3,7.3,0,0,1,.75-.2,1.6,1.6,0,0,0,.56-.33,2.06,2.06,0,0,0,.45-.49,2.55,2.55,0,0,0,.19-.39,1.59,1.59,0,0,0,.08-.36c0-.06.05-.06.05-.14s0-.09-.05-.14A2.29,2.29,0,0,0,441.72,191Z"/><path class="cls-3" d="M415.65,172.33s0-.09,0-.13a.08.08,0,0,1,.05-.07,1.5,1.5,0,0,0,0-.19c0-.07,0-.16,0-.24s-.06-.25,0-.31,0-.15-.09-.21,0-.08,0-.09-.1-.25-.12-.34,0-.24-.08-.37l0-.14c0-.07,0-.08,0-.14s-.18-.19-.25-.3-.16-.2-.23-.3-.07-.19-.12-.25a6.43,6.43,0,0,0-.41-.54,2.28,2.28,0,0,0-.22-.22c-.08-.07-.15-.09-.22-.16s-.09-.15-.16-.22-.21-.12-.29-.22a1.27,1.27,0,0,1-.16-.29,1.46,1.46,0,0,1,0-.14l0-.14a2.8,2.8,0,0,1-.14-.75,1.12,1.12,0,0,0-.24-.65c0-.08-.09-.17-.13-.25a1.7,1.7,0,0,1-.15-.3,1.54,1.54,0,0,0-.06-.32,1.9,1.9,0,0,1-.11-.26,4.41,4.41,0,0,0-.2-.69,8.21,8.21,0,0,0-.75-1.27,5.17,5.17,0,0,0-1-1.16,3.84,3.84,0,0,0-.52-.38,3.21,3.21,0,0,1-.56-.38,5.84,5.84,0,0,0-.51-.45,1.46,1.46,0,0,1-.31-.25s0,0-.07-.09.06-.07,0-.12a.68.68,0,0,0,.13-.27,2.43,2.43,0,0,0,.11-.31c0-.12,0-.25,0-.37s0-.08.05-.14a1.57,1.57,0,0,0,0-.19,1.53,1.53,0,0,1,.13-.7,1.23,1.23,0,0,0,.13-.63,6.31,6.31,0,0,0-.13-1.65,4.81,4.81,0,0,0-.7-2.22c-.57-.89-1.21-1.2-1.84-2s-.32-2-.83-3-.82-.44-1.14-.12-.51.82-1.21,2.92a5,5,0,0,0-.19,3c-.06.57.19.57-.57,1.46s-.51,1-1.27,1.78-.63,1.14-1.21,1.08-.51-.25-1.71-1.2a25.71,25.71,0,0,0-2.79-1.84c-1.08-.7-.7-.76-1-1.27s-.38-.63.06-1.39a19.22,19.22,0,0,1,1.21-1.65c.25-.38.51-.57-.06-1a6.16,6.16,0,0,0-2-.89,3.76,3.76,0,0,0-2.73-.26c-1,.32-1.46,1-2,1.08a2.41,2.41,0,0,0-1.78.44,5.45,5.45,0,0,0-1.71,2.09c-.57.89-.06,1.21-.44,1.46s-.38.19-1.27-.44-1-1-1.52-1.14-1.08.19-2,.44a2.15,2.15,0,0,0-1.52,1c-.51.63-.63,1-1.14,1.58s-1.14.57-1.65.83,0,0,.06.7.32.82-.25.7a3,3,0,0,0-1.08-.19c-.63,0-.44,0-.89,1a5.32,5.32,0,0,1-1.52,2.41c-1,.89-1.46,1.39-2.79,1.33s-1.27.19-2.47.51a36.45,36.45,0,0,0-3.55,1.65c-1.14.44-2.41,1-2.41,1-.18-.05-.41.26-.52.36a4.87,4.87,0,0,0-.48.54,1.86,1.86,0,0,0-.25.51,2.72,2.72,0,0,0-.14.75c0,.13,0,.25-.06.38a2,2,0,0,0-.06.31,1.26,1.26,0,0,1,0,.19,1.09,1.09,0,0,1,0,.14c0,.14,0,.29,0,.43s-.07.12-.07.2,0,.08.05.14,0,.25,0,.37.06.06.07.12,0,.13,0,.19a1.05,1.05,0,0,1,.05.45c0,.07-.06.12-.07.19s0,.13,0,.19-.1.18-.12.27a1.9,1.9,0,0,0,0,.37,1.56,1.56,0,0,1,0,.19c0,.09,0,.11-.07.18a3.65,3.65,0,0,0,0,.77c0,.13,0,.25,0,.38s-.07.28-.06.44a3.67,3.67,0,0,1,0,.75.94.94,0,0,0-.05.14,1.39,1.39,0,0,0,0,.19c0,.18-.07.32-.06.51s-.06.49-.06.76,0,.25,0,.38-.1.25-.07.38.06.06.07.12a1.09,1.09,0,0,1,0,.2c0,.13,0,.25,0,.38s.07.24.06.38a1,1,0,0,0,.06.38.88.88,0,0,1,.06.32,1.71,1.71,0,0,0,.06.32c0,.12,0,.2.06.32s0,.24.06.38a1.9,1.9,0,0,1,.07.38c0,.13,0,.25,0,.38a1.77,1.77,0,0,1,0,.37,1.21,1.21,0,0,0,0,.14,1.61,1.61,0,0,1,0,.26c0,.07,0,.12,0,.19s0,.11,0,.14,0,.24,0,.37a3.37,3.37,0,0,1-.24.7l-.13.25a1.28,1.28,0,0,0-.08.32,1.78,1.78,0,0,1-.24.7c-.07.08,0,0-.13.06l-.14,0a1.46,1.46,0,0,0-.3.14,2.37,2.37,0,0,0-.52.36.78.78,0,0,0-.24.53c0,.12-.09.27-.07.38s.15.16.21.23.11.16.22.22l.25.13a3.87,3.87,0,0,0,.71.3,4.59,4.59,0,0,0,.7.19c.06,0,.13,0,.19,0s.06.05.12.07.13,0,.19,0a1.65,1.65,0,0,0,.25.07h.38a1.94,1.94,0,0,1,.31.07,1.51,1.51,0,0,0,.76-.13l.14,0,.17-.1c.17-.09.34-.15.51-.23s.52-.16.76-.28.39-.21.59-.29.42-.23.63-.32.23-.11.32-.13.12,0,.18,0,.06-.06.12-.07.13,0,.19,0l.19-.06a3.26,3.26,0,0,1,.43-.06.8.8,0,0,1,.14-.05h.57a2.06,2.06,0,0,0,.38,0c.07,0,.12-.06.19-.07a3,3,0,0,1,.32,0,3.29,3.29,0,0,1,.44-.06,1.79,1.79,0,0,0,.32-.07,3.09,3.09,0,0,1,.38,0h.19c.09,0,.11,0,.19-.07a2,2,0,0,1,.38,0c.14,0,.2-.05.33-.06a2.44,2.44,0,0,0,.81-.17c.46-.2.9-.4,1.35-.63s1-.61,1.44-.89a11.54,11.54,0,0,1,2.9-.92c.08,0,.2-.08.28-.1l.37-.08.38-.08a.88.88,0,0,1,.19-.05c.08,0,.17,0,.25,0a2,2,0,0,1,.32-.06c.14,0,.24-.06.38-.07s.25-.06.38-.06h.44a1.62,1.62,0,0,0,.32-.06,3.05,3.05,0,0,1,.38,0,1.46,1.46,0,0,1,.26,0c.06,0,.12.07.19.07s.11-.06.19-.06a.28.28,0,0,0,.13.06.36.36,0,0,0,.13-.05,2,2,0,0,1,.76,0,2.83,2.83,0,0,1,.78.13,3.44,3.44,0,0,1,1,.82,6.46,6.46,0,0,1,.79.9,3.71,3.71,0,0,0,.46.51,3,3,0,0,1,.46.68,2.64,2.64,0,0,1,.32.7c0,.1.09.22.11.33s.1.26.13.38,0,.2.07.3a.55.55,0,0,0,.24.21.47.47,0,0,0,.32-.07c.06,0,.09,0,.15,0a.4.4,0,0,0,.11-.14,4.68,4.68,0,0,0,.27-.57c0-.06.07-.27.12-.31s.12,0,.18,0,.1-.06.18-.07.26,0,.38,0,.21-.12.32-.18a3.45,3.45,0,0,0,.65-.46l.51-.44a1.76,1.76,0,0,1,.48-.4c.12,0,.15,0,.25.08s.08.18.08.32a.6.6,0,0,1-.33.55s-.09,0-.13.06-.06.07-.09.1a1.56,1.56,0,0,0-.22.16c-.17.17-.37.31-.54.47s-.66.63-.65,1.06c0,.09-.09.25-.06.32s.23.11.31.14l.19.06s.12.1.14.1.23-.12.29-.19.08-.18.13-.26.11-.15.16-.23.1-.24.22-.18a1.2,1.2,0,0,1,.14.37c0,.06,0,.13,0,.2s.06.06.07.12,0,.25,0,.37a.84.84,0,0,1,.05.14,1.39,1.39,0,0,1,0,.19.73.73,0,0,0,.11.38c.05.09.11.14.16.23s.09.16.13.25a1,1,0,0,1,0,.71,3,3,0,0,0-.24.59,2.45,2.45,0,0,0-.08.3,3.09,3.09,0,0,0-.06.38.74.74,0,0,0,.24.53c.2.17.42.35.64.51a4,4,0,0,0,.58.38,3.36,3.36,0,0,0,.7.3,14.35,14.35,0,0,1,1.59.38c.11,0,.21,0,.32.06s.06.06.12.07a.91.91,0,0,0,.19,0c.14,0,.2,0,.3-.08s.14-.2.22-.29c.29-.3.71-.63,1.14-.41a.27.27,0,0,1,.11.08l.08.11c.06.09.12.17.19.25a8,8,0,0,0,.62.59,2.31,2.31,0,0,0,.49.4c.1.05.15.1.27,0s.16-.14.24-.21a4.18,4.18,0,0,1,.78-.51c.23-.12.31-.4.5-.55a2.49,2.49,0,0,1,.57-.4c.12-.05.25-.08.38-.13l.19,0c.08,0,.11,0,.18-.07s.25,0,.37,0,.21-.08.28-.1H401c.06,0,.06-.06.12-.07s.24.12.33.18a.81.81,0,0,0,.23.15c.12,0,.21-.05.32-.07a1.57,1.57,0,0,1,.38,0c.16,0,.16.09.3,0s.39-.33.59-.49a2.3,2.3,0,0,0,.57-.63,1.24,1.24,0,0,0,.06-.19l0-.14a2,2,0,0,1,.09-.35c0-.09.09-.17.13-.27s.06-.24.13-.37a2.67,2.67,0,0,1,.8-1.11c.11-.07.23-.1.34-.16l.24-.14a3.17,3.17,0,0,0,.63-.38,1.91,1.91,0,0,0,.43-.65l.35-.69c.12-.23.26-.45.38-.68a6.2,6.2,0,0,1,.38-.52s0-.11.09-.14.08,0,.15,0,.16-.11.25-.13a2.11,2.11,0,0,0,.32-.06c.16-.06.33-.08.5-.14s.23-.09.33-.11.22,0,.34,0l.25-.12a1.75,1.75,0,0,0,.29-.29,5.87,5.87,0,0,1,.46-.38,2.45,2.45,0,0,0,.45-.49,12.27,12.27,0,0,1,.81-1.16c.13-.15.24-.3.38-.44a2.63,2.63,0,0,0,.4-.49c.13-.21.26-.41.4-.62s.32-.33.44-.52c.29-.42.45-.91.76-1.32a1.71,1.71,0,0,0,.19-.32,3.55,3.55,0,0,0,.23-.35c0-.08,0-.16,0-.24l.06-.24a.59.59,0,0,0,0-.21,1,1,0,0,1,0-.24s0-.14.06-.2,0-.16.06-.24a.62.62,0,0,0,0-.2c0-.08,0-.17,0-.26a1.65,1.65,0,0,1,.11-.44c0-.08,0-.16,0-.24a.09.09,0,0,0,.05-.08v-.13c0-.06.06-.06.07-.12a1.2,1.2,0,0,0,0-.26,4,4,0,0,1,0-.51c0-.09,0-.11.07-.18s0-.17,0-.24a3.32,3.32,0,0,1,.16-.41.69.69,0,0,0,0-.41A.79.79,0,0,1,415.65,172.33Z"/></g></g></g></svg>